<svg width="77" height="102" viewBox="0 0 77 102" fill="none" xmlns="http://www.w3.org/2000/svg">
<path d="M13.959 92.2891H8.00195L6.66406 96H4.73047L10.1602 81.7812H11.8008L17.2402 96H15.3164L13.959 92.2891ZM8.56836 90.7461H13.4023L10.9805 84.0957L8.56836 90.7461ZM18.4414 90.6289C18.4414 88.9818 18.8223 87.6732 19.584 86.7031C20.3457 85.7266 21.3548 85.2383 22.6113 85.2383C23.9004 85.2383 24.9062 85.694 25.6289 86.6055L25.7168 85.4336H27.3672V95.7461C27.3672 97.1133 26.9603 98.1908 26.1465 98.9785C25.3392 99.7663 24.252 100.16 22.8848 100.16C22.123 100.16 21.3776 99.9974 20.6484 99.6719C19.9193 99.3464 19.3626 98.9004 18.9785 98.334L19.916 97.25C20.6908 98.207 21.638 98.6855 22.7578 98.6855C23.6367 98.6855 24.3203 98.4382 24.8086 97.9434C25.3034 97.4486 25.5508 96.752 25.5508 95.8535V94.9453C24.8281 95.7786 23.8418 96.1953 22.5918 96.1953C21.3548 96.1953 20.3522 95.6973 19.584 94.7012C18.8223 93.7051 18.4414 92.3477 18.4414 90.6289ZM20.2578 90.834C20.2578 92.0254 20.502 92.9629 20.9902 93.6465C21.4785 94.3236 22.1621 94.6621 23.041 94.6621C24.1803 94.6621 25.0169 94.1445 25.5508 93.1094V88.2852C24.9974 87.276 24.1673 86.7715 23.0605 86.7715C22.1816 86.7715 21.4948 87.1133 21 87.7969C20.5052 88.4805 20.2578 89.4928 20.2578 90.834ZM34.4863 96.1953C33.054 96.1953 31.8887 95.7266 30.9902 94.7891C30.0918 93.8451 29.6426 92.5853 29.6426 91.0098V90.6777C29.6426 89.6296 29.8411 88.6953 30.2383 87.875C30.6419 87.0482 31.2018 86.4036 31.918 85.9414C32.6406 85.4727 33.4219 85.2383 34.2617 85.2383C35.6354 85.2383 36.7031 85.6908 37.4648 86.5957C38.2266 87.5007 38.6074 88.7962 38.6074 90.4824V91.2344H31.4492C31.4753 92.276 31.778 93.1191 32.3574 93.7637C32.9434 94.4017 33.6855 94.7207 34.584 94.7207C35.222 94.7207 35.7624 94.5905 36.2051 94.3301C36.6478 94.0697 37.0352 93.7246 37.3672 93.2949L38.4707 94.1543C37.5853 95.515 36.2572 96.1953 34.4863 96.1953ZM34.2617 86.7227C33.5326 86.7227 32.9206 86.9896 32.4258 87.5234C31.931 88.0508 31.625 88.793 31.5078 89.75H36.8008V89.6133C36.7487 88.6953 36.5013 87.9857 36.0586 87.4844C35.6159 86.9766 35.0169 86.7227 34.2617 86.7227ZM42.416 85.4336L42.4746 86.7617C43.2819 85.7461 44.3366 85.2383 45.6387 85.2383C47.8717 85.2383 48.998 86.498 49.0176 89.0176V96H47.2109V89.0078C47.2044 88.2461 47.0286 87.6829 46.6836 87.3184C46.3451 86.9538 45.8145 86.7715 45.0918 86.7715C44.5059 86.7715 43.9915 86.9277 43.5488 87.2402C43.1061 87.5527 42.7611 87.9629 42.5137 88.4707V96H40.707V85.4336H42.416ZM51.3027 90.6289C51.3027 89.0078 51.6868 87.7057 52.4551 86.7227C53.2233 85.7331 54.2292 85.2383 55.4727 85.2383C56.7096 85.2383 57.6895 85.6615 58.4121 86.5078V81H60.2188V96H58.5586L58.4707 94.8672C57.748 95.7526 56.7422 96.1953 55.4531 96.1953C54.2292 96.1953 53.2298 95.694 52.4551 94.6914C51.6868 93.6888 51.3027 92.3802 51.3027 90.7656V90.6289ZM53.1094 90.834C53.1094 92.0319 53.3568 92.9694 53.8516 93.6465C54.3464 94.3236 55.0299 94.6621 55.9023 94.6621C57.0482 94.6621 57.8848 94.1478 58.4121 93.1191V88.2656C57.8717 87.2695 57.0417 86.7715 55.9219 86.7715C55.0365 86.7715 54.3464 87.1133 53.8516 87.7969C53.3568 88.4805 53.1094 89.4928 53.1094 90.834ZM69.5547 96C69.4505 95.7917 69.3659 95.4206 69.3008 94.8867C68.4609 95.7591 67.4583 96.1953 66.293 96.1953C65.2513 96.1953 64.3952 95.9023 63.7246 95.3164C63.0605 94.724 62.7285 93.9753 62.7285 93.0703C62.7285 91.9701 63.1452 91.1172 63.9785 90.5117C64.8184 89.8997 65.9967 89.5938 67.5137 89.5938H69.2715V88.7637C69.2715 88.1322 69.0827 87.6309 68.7051 87.2598C68.3275 86.8822 67.7708 86.6934 67.0352 86.6934C66.3906 86.6934 65.8503 86.8561 65.4141 87.1816C64.9779 87.5072 64.7598 87.901 64.7598 88.3633H62.9434C62.9434 87.8359 63.1289 87.3281 63.5 86.8398C63.8776 86.3451 64.3854 85.9544 65.0234 85.668C65.668 85.3815 66.3743 85.2383 67.1426 85.2383C68.36 85.2383 69.3138 85.5443 70.0039 86.1562C70.694 86.7617 71.0521 87.5983 71.0781 88.666V93.5293C71.0781 94.4993 71.2018 95.2708 71.4492 95.8438V96H69.5547ZM66.5566 94.623C67.123 94.623 67.6602 94.4766 68.168 94.1836C68.6758 93.8906 69.0436 93.5098 69.2715 93.041V90.873H67.8555C65.6419 90.873 64.5352 91.5208 64.5352 92.8164C64.5352 93.3828 64.724 93.8255 65.1016 94.1445C65.4792 94.4635 65.9642 94.623 66.5566 94.623Z" fill="#F29F05"/>
<g clip-path="url(#clip0_261_62)">
<path opacity="0.95" fill-rule="evenodd" clip-rule="evenodd" d="M16.7109 -0.0703125C18.7265 -0.0703125 20.7422 -0.0703125 22.7578 -0.0703125C23.1451 0.186833 23.356 0.561833 23.3906 1.05469C23.4609 2.64774 23.4844 4.2415 23.4609 5.83594C33.7734 5.83594 44.086 5.83594 54.3984 5.83594C54.375 4.2415 54.3984 2.64774 54.4688 1.05469C54.5033 0.561833 54.7143 0.186833 55.1016 -0.0703125C57.1171 -0.0703125 59.1329 -0.0703125 61.1484 -0.0703125C61.5357 0.186833 61.7467 0.561833 61.7812 1.05469C61.8516 2.64774 61.875 4.2415 61.8516 5.83594C65.93 5.81251 70.0081 5.83594 74.0859 5.90625C74.458 6.01933 74.7393 6.23026 74.9297 6.53906C74.9297 28.1485 74.9297 49.7578 74.9297 71.3672C74.7891 71.6016 74.6016 71.7891 74.3672 71.9297C50.7422 71.9297 27.1172 71.9297 3.49219 71.9297C3.25781 71.7891 3.07031 71.6016 2.92969 71.3672C2.92969 49.7578 2.92969 28.1485 2.92969 6.53906C3.12011 6.23026 3.40135 6.01933 3.77344 5.90625C7.8513 5.83594 11.9294 5.81251 16.0078 5.83594C15.9844 4.2415 16.0078 2.64774 16.0781 1.05469C16.1128 0.561833 16.3237 0.186833 16.7109 -0.0703125ZM18.5391 2.46094C19.336 2.46094 20.1328 2.46094 20.9297 2.46094C20.9297 5.17968 20.9297 7.89844 20.9297 10.6172C20.1328 10.6172 19.336 10.6172 18.5391 10.6172C18.5391 7.89844 18.5391 5.17968 18.5391 2.46094ZM56.9297 2.46094C57.7266 2.46094 58.5234 2.46094 59.3203 2.46094C59.3203 5.17968 59.3203 7.89844 59.3203 10.6172C58.5234 10.6172 57.7266 10.6172 56.9297 10.6172C56.9297 7.89844 56.9297 5.17968 56.9297 2.46094ZM5.46094 8.36719C8.97656 8.36719 12.4922 8.36719 16.0078 8.36719C15.9844 9.58684 16.0078 10.8056 16.0781 12.0234C16.0923 12.4978 16.3033 12.8494 16.7109 13.0781C18.7265 13.1719 20.7422 13.1719 22.7578 13.0781C22.9219 12.9141 23.0859 12.75 23.25 12.5859C23.4462 11.1889 23.5165 9.78268 23.4609 8.36719C33.7734 8.36719 44.086 8.36719 54.3984 8.36719C54.3429 9.78268 54.4132 11.1889 54.6094 12.5859C54.7735 12.75 54.9375 12.9141 55.1016 13.0781C57.1171 13.1719 59.1329 13.1719 61.1484 13.0781C61.5561 12.8494 61.767 12.4978 61.7812 12.0234C61.8516 10.8056 61.8749 9.58684 61.8516 8.36719C65.3672 8.36719 68.8828 8.36719 72.3984 8.36719C72.3984 28.711 72.3984 49.0546 72.3984 69.3984C50.0859 69.3984 27.7735 69.3984 5.46094 69.3984C5.46094 49.0546 5.46094 28.711 5.46094 8.36719ZM10.9453 19.1953C12.774 19.1718 14.6022 19.1953 16.4297 19.2656C16.8281 19.3828 17.086 19.6407 17.2031 20.0391C17.2969 21.8204 17.2969 23.6015 17.2031 25.3828C17.1647 25.64 17.0475 25.851 16.8516 26.0156C14.8491 26.2451 12.8335 26.292 10.8047 26.1562C10.6406 25.9921 10.4766 25.8282 10.3125 25.6641C10.2187 23.7421 10.2187 21.8204 10.3125 19.8984C10.4566 19.5909 10.6676 19.3565 10.9453 19.1953ZM27.8203 19.1953C29.649 19.1718 31.4771 19.1953 33.3047 19.2656C33.5059 19.331 33.6699 19.4483 33.7969 19.6172C34.0264 21.6197 34.0732 23.6353 33.9375 25.6641C33.7734 25.8282 33.6094 25.9921 33.4453 26.1562C31.5234 26.25 29.6016 26.25 27.6797 26.1562C27.3541 26.0003 27.1432 25.7424 27.0469 25.3828C26.9531 23.6015 26.9531 21.8204 27.0469 20.0391C27.1905 19.6383 27.4482 19.357 27.8203 19.1953ZM44.5547 19.1953C46.3834 19.1718 48.2115 19.1953 50.0391 19.2656C50.4375 19.3828 50.6954 19.6407 50.8125 20.0391C50.9063 21.8204 50.9063 23.6015 50.8125 25.3828C50.7131 25.6051 50.5959 25.8161 50.4609 26.0156C48.4584 26.2451 46.4429 26.292 44.4141 26.1562C44.25 25.9921 44.086 25.8282 43.9219 25.6641C43.8281 23.7421 43.8281 21.8204 43.9219 19.8984C44.066 19.5909 44.277 19.3565 44.5547 19.1953ZM61.4297 19.1953C63.2584 19.1718 65.0865 19.1953 66.9141 19.2656C67.1153 19.331 67.2793 19.4483 67.4062 19.6172C67.6357 21.6197 67.6826 23.6353 67.5469 25.6641C67.3828 25.8282 67.2188 25.9921 67.0547 26.1562C65.1328 26.25 63.211 26.25 61.2891 26.1562C61.0878 26.0909 60.9239 25.9736 60.7969 25.8047C60.5702 23.8926 60.5234 21.9707 60.6562 20.0391C60.7998 19.6383 61.0576 19.357 61.4297 19.1953ZM11.3672 35.9297C13.157 35.8706 14.9383 35.9409 16.7109 36.1406C16.8281 36.2578 16.9453 36.375 17.0625 36.4922C17.2892 38.4043 17.336 40.3262 17.2031 42.2578C17.0927 42.509 16.9287 42.7199 16.7109 42.8906C14.8927 43.1169 13.0645 43.1637 11.2266 43.0312C10.9426 42.968 10.6848 42.8508 10.4531 42.6797C10.2237 40.6772 10.1768 38.6616 10.3125 36.6328C10.5707 36.2357 10.9222 36.0014 11.3672 35.9297ZM28.1016 35.9297C29.696 35.9062 31.2898 35.9297 32.8828 36C33.2186 36.0426 33.5234 36.1599 33.7969 36.3516C33.9563 37.3922 34.0267 38.4469 34.0078 39.5156C33.9843 40.4765 33.961 41.4375 33.9375 42.3984C33.7492 42.7632 33.4445 42.9742 33.0234 43.0312C31.3359 43.125 29.6484 43.125 27.9609 43.0312C27.6308 42.9826 27.373 42.8185 27.1875 42.5391C26.961 40.6738 26.9141 38.7989 27.0469 36.9141C27.2115 36.3765 27.5631 36.0482 28.1016 35.9297ZM44.9766 35.9297C46.3367 35.9063 47.6961 35.9297 49.0547 36C47.3437 37.711 45.6329 39.4218 43.9219 41.1328C43.8281 39.6328 43.8281 38.1329 43.9219 36.6328C43.9745 36.504 44.0448 36.3867 44.1328 36.2812C44.4297 36.1624 44.7109 36.0453 44.9766 35.9297ZM61.7109 35.9297C63.3053 35.9062 64.8992 35.9297 66.4922 36C66.9665 36.0142 67.3181 36.2251 67.5469 36.6328C67.6407 38.5547 67.6407 40.4765 67.5469 42.3984C67.3586 42.7632 67.0538 42.9742 66.6328 43.0312C64.9453 43.125 63.2578 43.125 61.5703 43.0312C61.2401 42.9826 60.9824 42.8185 60.7969 42.5391C60.5678 40.6773 60.521 38.8024 60.6562 36.9141C60.8143 36.3569 61.1659 36.0288 61.7109 35.9297ZM50.7422 37.8984C50.8358 38.5765 50.8827 39.2797 50.8828 40.0078C50.8967 40.8627 50.8264 41.7064 50.6719 42.5391C50.4864 42.8185 50.2286 42.9826 49.8984 43.0312C48.4922 43.125 47.0859 43.125 45.6797 43.0312C47.3956 41.3388 49.0831 39.6278 50.7422 37.8984ZM10.9453 52.8047C12.8209 52.7812 14.6959 52.8047 16.5703 52.875C16.8834 53.0475 17.0943 53.3055 17.2031 53.6484C17.2969 55.4297 17.2969 57.2109 17.2031 58.9922C17.1037 59.2145 16.9866 59.4255 16.8516 59.625C14.896 59.8544 12.9273 59.9012 10.9453 59.7656C10.6942 59.6552 10.4832 59.4913 10.3125 59.2734C10.2187 57.3515 10.2187 55.4297 10.3125 53.5078C10.4566 53.2003 10.6676 52.9658 10.9453 52.8047ZM27.8203 52.8047C29.649 52.7812 31.4771 52.8047 33.3047 52.875C33.5558 52.9854 33.7668 53.1494 33.9375 53.3672C34.0313 55.3359 34.0313 57.3047 33.9375 59.2734C33.7734 59.4375 33.6094 59.6015 33.4453 59.7656C31.5234 59.8594 29.6016 59.8594 27.6797 59.7656C27.3541 59.6097 27.1432 59.3518 27.0469 58.9922C26.9531 57.2109 26.9531 55.4297 27.0469 53.6484C27.1905 53.2477 27.4482 52.9664 27.8203 52.8047ZM44.5547 52.8047C46.3834 52.7812 48.2115 52.8047 50.0391 52.875C50.4375 52.9921 50.6954 53.25 50.8125 53.6484C50.9063 55.4297 50.9063 57.2109 50.8125 58.9922C50.7131 59.2145 50.5959 59.4255 50.4609 59.625C48.4584 59.8545 46.4429 59.9013 44.4141 59.7656C44.25 59.6015 44.086 59.4375 43.9219 59.2734C43.8281 57.3047 43.8281 55.3359 43.9219 53.3672C44.1183 53.1464 44.3293 52.9588 44.5547 52.8047ZM61.2891 52.8047C63.1646 52.7812 65.0397 52.8047 66.9141 52.875C67.1153 52.9404 67.2793 53.0577 67.4062 53.2266C67.6357 55.2291 67.6826 57.2446 67.5469 59.2734C67.4297 59.3906 67.3125 59.5079 67.1953 59.625C66.1782 59.7843 65.147 59.8546 64.1016 59.8359C63.164 59.8125 62.2266 59.7891 61.2891 59.7656C60.9635 59.6097 60.7526 59.3518 60.6562 58.9922C60.5625 57.2109 60.5625 55.4297 60.6562 53.6484C60.7939 53.3014 61.0049 53.0201 61.2891 52.8047Z" fill="#E39607"/>
<path opacity="0.943" fill-rule="evenodd" clip-rule="evenodd" d="M10.5234 16.6641C12.6802 16.6406 14.8365 16.6641 16.9922 16.7344C18.4932 17.1336 19.4073 18.0945 19.7344 19.6172C19.8282 21.6798 19.8282 23.7422 19.7344 25.8047C19.4446 27.3602 18.5305 28.321 16.9922 28.6875C14.7891 28.7813 12.5859 28.7813 10.3828 28.6875C9.04688 28.2891 8.17969 27.4219 7.78125 26.086C7.6875 23.836 7.6875 21.586 7.78125 19.336C8.21895 17.9372 9.13301 17.0464 10.5234 16.6641ZM10.9453 19.1953C10.6676 19.3565 10.4566 19.5909 10.3125 19.8985C10.2187 21.8204 10.2187 23.7422 10.3125 25.6641C10.4766 25.8282 10.6406 25.9922 10.8047 26.1563C12.8335 26.292 14.8491 26.2451 16.8516 26.0156C17.0475 25.851 17.1647 25.64 17.2031 25.3828C17.2969 23.6015 17.2969 21.8204 17.2031 20.0391C17.086 19.6407 16.8281 19.3828 16.4297 19.2656C14.6022 19.1953 12.774 19.1718 10.9453 19.1953Z" fill="#E39607"/>
<path opacity="0.943" fill-rule="evenodd" clip-rule="evenodd" d="M27.3984 16.6641C29.5084 16.6406 31.6178 16.6641 33.7266 16.7344C35.1422 17.0719 36.0563 17.939 36.4688 19.336C36.5625 21.586 36.5625 23.836 36.4688 26.086C36.0753 27.417 35.208 28.2842 33.8672 28.6875C31.664 28.7813 29.461 28.7813 27.2578 28.6875C25.7195 28.321 24.8055 27.3602 24.5156 25.8047C24.3861 23.5482 24.4329 21.2982 24.6563 19.0547C25.206 17.8244 26.12 17.0275 27.3984 16.6641ZM27.8203 19.1953C27.4482 19.3571 27.1905 19.6383 27.0469 20.0391C26.9531 21.8204 26.9531 23.6015 27.0469 25.3828C27.1432 25.7424 27.3541 26.0003 27.6797 26.1563C29.6016 26.2501 31.5234 26.2501 33.4453 26.1563C33.6094 25.9922 33.7734 25.8282 33.9375 25.6641C34.0732 23.6353 34.0264 21.6197 33.7969 19.6172C33.6699 19.4483 33.5059 19.331 33.3047 19.2656C31.4771 19.1953 29.649 19.1718 27.8203 19.1953Z" fill="#E39607"/>
<path opacity="0.943" fill-rule="evenodd" clip-rule="evenodd" d="M44.1328 16.6641C46.2428 16.6406 48.3521 16.6641 50.461 16.7344C52.095 17.1028 53.0559 18.1106 53.3438 19.7578C53.4376 21.7734 53.4376 23.7891 53.3438 25.8047C53.0539 27.3602 52.1399 28.321 50.6016 28.6875C48.3984 28.7813 46.1954 28.7813 43.9922 28.6875C42.6513 28.2842 41.7841 27.417 41.3906 26.086C41.2968 23.836 41.2968 21.586 41.3906 19.336C41.8283 17.9372 42.7423 17.0464 44.1328 16.6641ZM44.5547 19.1953C44.277 19.3565 44.066 19.5909 43.9219 19.8985C43.8281 21.8204 43.8281 23.7422 43.9219 25.6641C44.086 25.8282 44.25 25.9922 44.4141 26.1563C46.4429 26.292 48.4584 26.2451 50.461 26.0156C50.596 25.8161 50.7131 25.6052 50.8125 25.3828C50.9063 23.6015 50.9063 21.8204 50.8125 20.0391C50.6954 19.6407 50.4375 19.3828 50.0391 19.2656C48.2115 19.1953 46.3834 19.1718 44.5547 19.1953Z" fill="#E39607"/>
<path opacity="0.943" fill-rule="evenodd" clip-rule="evenodd" d="M60.8672 16.6641C63.024 16.6406 65.1802 16.6641 67.3359 16.7344C68.7516 17.0719 69.6657 17.939 70.0781 19.336C70.1719 21.586 70.1719 23.836 70.0781 26.086C69.6797 27.4219 68.8125 28.2891 67.4766 28.6875C65.2734 28.7813 63.0704 28.7813 60.8672 28.6875C59.3289 28.321 58.4148 27.3602 58.125 25.8047C58.0312 23.7422 58.0312 21.6798 58.125 19.6172C58.4667 18.0828 59.3808 17.0985 60.8672 16.6641ZM61.4297 19.1953C61.0576 19.3571 60.7998 19.6383 60.6563 20.0391C60.5234 21.9707 60.5702 23.8926 60.7969 25.8047C60.9239 25.9736 61.0878 26.0909 61.2891 26.1563C63.211 26.2501 65.1328 26.2501 67.0547 26.1563C67.2188 25.9922 67.3828 25.8282 67.5469 25.6641C67.6826 23.6353 67.6358 21.6197 67.4063 19.6172C67.2793 19.4483 67.1153 19.331 66.9141 19.2656C65.0865 19.1953 63.2584 19.1718 61.4297 19.1953Z" fill="#E39607"/>
<path opacity="0.942" fill-rule="evenodd" clip-rule="evenodd" d="M11.2266 33.3985C13.2016 33.3439 15.1704 33.4142 17.1328 33.6094C18.5246 34.0171 19.3918 34.9312 19.7344 36.3516C19.8282 38.461 19.8282 40.5704 19.7344 42.6798C19.3032 44.3299 18.2485 45.2907 16.5703 45.5626C14.6953 45.6564 12.8203 45.6564 10.9453 45.5626C9.32322 45.3741 8.26853 44.5069 7.78125 42.961C7.6486 40.5161 7.69547 38.0785 7.92188 35.6485C8.59051 34.2519 9.69207 33.502 11.2266 33.3985ZM11.3672 35.9297C10.9222 36.0015 10.5707 36.2357 10.3125 36.6329C10.1768 38.6617 10.2237 40.6773 10.4531 42.6798C10.6848 42.8509 10.9426 42.968 11.2266 43.0313C13.0645 43.1638 14.8927 43.117 16.7109 42.8907C16.9287 42.72 17.0927 42.509 17.2031 42.2579C17.336 40.3263 17.2892 38.4043 17.0625 36.4922C16.9453 36.3751 16.8281 36.2578 16.7109 36.1407C14.9383 35.941 13.157 35.8707 11.3672 35.9297Z" fill="#E39607"/>
<path opacity="0.943" fill-rule="evenodd" clip-rule="evenodd" d="M27.9609 33.3984C29.9823 33.3465 31.9979 33.4168 34.0078 33.6093C35.2969 33.9609 36.1172 34.7811 36.4688 36.0702C36.5626 38.3671 36.5626 40.664 36.4688 42.9609C35.9815 44.5068 34.9268 45.374 33.3047 45.5624C31.4297 45.6562 29.5546 45.6562 27.6797 45.5624C25.9389 45.2747 24.8842 44.267 24.5156 42.539C24.3839 40.3282 24.4308 38.1251 24.6563 35.9296C25.2317 34.3891 26.3332 33.5453 27.9609 33.3984ZM28.1016 35.9296C27.5631 36.0482 27.2115 36.3764 27.0469 36.914C26.9141 38.7988 26.961 40.6737 27.1875 42.539C27.373 42.8184 27.6308 42.9825 27.9609 43.0312C29.6484 43.125 31.3359 43.125 33.0234 43.0312C33.4445 42.9741 33.7492 42.7632 33.9375 42.3984C33.961 41.4375 33.9843 40.4764 34.0078 39.5156C34.0267 38.4468 33.9563 37.3921 33.7969 36.3515C33.5234 36.1598 33.2186 36.0425 32.8828 35.9999C31.2898 35.9296 29.696 35.9061 28.1016 35.9296Z" fill="#E39607"/>
<path opacity="0.944" fill-rule="evenodd" clip-rule="evenodd" d="M44.8359 33.3985C46.811 33.3439 48.7798 33.4142 50.7422 33.6094C52.2022 34.0381 53.0694 34.999 53.3438 36.4922C53.4376 38.5078 53.4376 40.5236 53.3438 42.5391C52.9752 44.2671 51.9205 45.2749 50.1797 45.5626C48.3047 45.6564 46.4297 45.6564 44.5547 45.5626C42.9326 45.3741 41.8779 44.5069 41.3906 42.961C41.2968 40.6642 41.2968 38.3672 41.3906 36.0704C41.9904 34.4619 43.1387 33.5713 44.8359 33.3985ZM44.9766 35.9297C44.7109 36.0453 44.4297 36.1625 44.1328 36.2813C44.0448 36.3868 43.9745 36.5041 43.9219 36.6329C43.8281 38.1329 43.8281 39.6328 43.9219 41.1329C45.6329 39.4219 47.3437 37.711 49.0547 36.0001C47.6961 35.9297 46.3367 35.9064 44.9766 35.9297ZM50.7422 37.8985C49.0831 39.6279 47.3956 41.3389 45.6797 43.0313C47.0859 43.1251 48.4922 43.1251 49.8985 43.0313C50.2286 42.9827 50.4864 42.8186 50.6719 42.5391C50.8264 41.7065 50.8967 40.8627 50.8828 40.0079C50.8827 39.2797 50.8359 38.5766 50.7422 37.8985Z" fill="#E39607"/>
<path opacity="0.942" fill-rule="evenodd" clip-rule="evenodd" d="M61.5703 33.3984C63.5917 33.3465 65.6072 33.4168 67.6172 33.6093C68.963 33.9813 69.7832 34.8485 70.0781 36.2109C70.1719 38.4609 70.1719 40.7109 70.0781 42.9609C69.5909 44.5068 68.5362 45.374 66.9141 45.5624C65.0391 45.6562 63.164 45.6562 61.2891 45.5624C59.6108 45.2906 58.5562 44.3297 58.125 42.6796C58.0312 40.5702 58.0312 38.4609 58.125 36.3515C58.6151 34.5708 59.7634 33.5864 61.5703 33.3984ZM61.7109 35.9296C61.1659 36.0288 60.8143 36.3568 60.6563 36.914C60.521 38.8023 60.5678 40.6773 60.7969 42.539C60.9824 42.8184 61.2401 42.9825 61.5703 43.0312C63.2578 43.125 64.9453 43.125 66.6328 43.0312C67.0539 42.9741 67.3586 42.7632 67.5469 42.3984C67.6407 40.4764 67.6407 38.5547 67.5469 36.6327C67.3181 36.2251 66.9665 36.0141 66.4922 35.9999C64.8992 35.9296 63.3053 35.9061 61.7109 35.9296Z" fill="#E39607"/>
<path opacity="0.942" fill-rule="evenodd" clip-rule="evenodd" d="M10.5234 50.2735C12.6802 50.25 14.8365 50.2735 16.9922 50.3438C18.5278 50.7077 19.4419 51.6686 19.7344 53.2266C19.8282 55.2891 19.8282 57.3515 19.7344 59.4141C19.4446 60.9695 18.5305 61.9304 16.9922 62.2969C14.7891 62.3907 12.5859 62.3907 10.3828 62.2969C9.04688 61.8985 8.17969 61.0313 7.78125 59.6953C7.6875 57.4453 7.6875 55.1953 7.78125 52.9453C8.21895 51.5465 9.13301 50.6558 10.5234 50.2735ZM10.9453 52.8047C10.6676 52.9659 10.4566 53.2003 10.3125 53.5078C10.2187 55.4298 10.2187 57.3515 10.3125 59.2735C10.4832 59.4913 10.6942 59.6553 10.9453 59.7656C12.9273 59.9012 14.896 59.8544 16.8516 59.625C16.9866 59.4255 17.1037 59.2145 17.2031 58.9922C17.2969 57.2109 17.2969 55.4298 17.2031 53.6485C17.0943 53.3055 16.8834 53.0476 16.5703 52.875C14.6959 52.8047 12.8209 52.7812 10.9453 52.8047Z" fill="#E39607"/>
<path opacity="0.943" fill-rule="evenodd" clip-rule="evenodd" d="M27.2578 50.2735C29.4146 50.25 31.5708 50.2735 33.7266 50.3438C35.141 50.68 36.055 51.5471 36.4688 52.9453C36.5625 55.1953 36.5625 57.4453 36.4688 59.6953C36.0704 61.0313 35.2031 61.8985 33.8672 62.2969C31.664 62.3907 29.461 62.3907 27.2578 62.2969C25.7235 61.9342 24.8094 60.9732 24.5156 59.4141C24.3861 57.1576 24.4329 54.9076 24.6563 52.6641C25.1325 51.4318 25.9998 50.6349 27.2578 50.2735ZM27.8203 52.8047C27.4482 52.9664 27.1905 53.2477 27.0469 53.6485C26.9531 55.4298 26.9531 57.2109 27.0469 58.9922C27.1432 59.3518 27.3541 59.6097 27.6797 59.7656C29.6016 59.8594 31.5234 59.8594 33.4453 59.7656C33.6094 59.6015 33.7734 59.4376 33.9375 59.2735C34.0313 57.3047 34.0313 55.336 33.9375 53.3672C33.7668 53.1494 33.5558 52.9854 33.3047 52.875C31.4771 52.8047 29.649 52.7812 27.8203 52.8047Z" fill="#E39607"/>
<path opacity="0.943" fill-rule="evenodd" clip-rule="evenodd" d="M44.1328 50.2735C46.2896 50.25 48.4458 50.2735 50.6016 50.3438C52.1437 50.7782 53.0577 51.786 53.3438 53.3672C53.4376 55.3828 53.4376 57.3985 53.3438 59.4141C53.05 60.9732 52.1359 61.9342 50.6016 62.2969C48.3984 62.3907 46.1954 62.3907 43.9922 62.2969C42.6563 61.8985 41.789 61.0313 41.3906 59.6953C41.2968 57.4453 41.2968 55.1953 41.3906 52.9453C41.8295 51.5453 42.7436 50.6546 44.1328 50.2735ZM44.5547 52.8047C44.3293 52.9588 44.1183 53.1464 43.9219 53.3672C43.8281 55.336 43.8281 57.3047 43.9219 59.2735C44.086 59.4376 44.25 59.6015 44.4141 59.7656C46.4429 59.9013 48.4584 59.8545 50.461 59.625C50.596 59.4255 50.7131 59.2145 50.8125 58.9922C50.9063 57.2109 50.9063 55.4298 50.8125 53.6485C50.6954 53.2501 50.4375 52.9922 50.0391 52.875C48.2115 52.8047 46.3834 52.7812 44.5547 52.8047Z" fill="#E39607"/>
<path opacity="0.942" fill-rule="evenodd" clip-rule="evenodd" d="M60.8672 50.2735C63.024 50.25 65.1802 50.2735 67.3359 50.3438C68.7516 50.6813 69.6657 51.5484 70.0781 52.9453C70.1719 55.1953 70.1719 57.4453 70.0781 59.6953C69.6797 61.0313 68.8125 61.8985 67.4766 62.2969C65.2734 62.3907 63.0704 62.3907 60.8672 62.2969C59.3289 61.9304 58.4148 60.9695 58.125 59.4141C58.0312 57.3515 58.0312 55.2891 58.125 53.2266C58.4435 51.6666 59.3576 50.6823 60.8672 50.2735ZM61.2891 52.8047C61.0049 53.0201 60.7939 53.3014 60.6563 53.6485C60.5625 55.4298 60.5625 57.2109 60.6563 58.9922C60.7526 59.3518 60.9635 59.6097 61.2891 59.7656C62.2266 59.7891 63.164 59.8125 64.1016 59.836C65.147 59.8547 66.1782 59.7843 67.1953 59.625C67.3125 59.5079 67.4297 59.3906 67.5469 59.2735C67.6826 57.2447 67.6358 55.2291 67.4063 53.2266C67.2793 53.0577 67.1153 52.9404 66.9141 52.875C65.0397 52.8047 63.1646 52.7812 61.2891 52.8047Z" fill="#E39607"/>
<path opacity="0.945" fill-rule="evenodd" clip-rule="evenodd" d="M12.3516 64.6172C29.6954 64.5937 47.0391 64.6172 64.3828 64.6875C65.3739 65.06 65.6317 65.7398 65.1562 66.7266C65.0293 66.8955 64.8653 67.0128 64.6641 67.0781C47.0859 67.1719 29.5078 67.1719 11.9297 67.0781C11.2797 66.5799 11.1156 65.9471 11.4375 65.1797C11.6895 64.8805 11.9941 64.693 12.3516 64.6172Z" fill="#E39607"/>
</g>
<defs>
<clipPath id="clip0_261_62">
<rect width="72" height="72" fill="white" transform="translate(3)"/>
</clipPath>
</defs>
</svg>
