<svg width="84" height="101" viewBox="0 0 84 101" fill="none" xmlns="http://www.w3.org/2000/svg">
<path d="M9.49219 87.7207H3.52539V94H1.65039V79.7812H10.459V81.3242H3.52539V86.1875H9.49219V87.7207ZM14.3848 94H12.5781V83.4336H14.3848V94ZM12.4316 80.6309C12.4316 80.3379 12.5195 80.0905 12.6953 79.8887C12.8776 79.6868 13.1445 79.5859 13.4961 79.5859C13.8477 79.5859 14.1146 79.6868 14.2969 79.8887C14.4792 80.0905 14.5703 80.3379 14.5703 80.6309C14.5703 80.9238 14.4792 81.168 14.2969 81.3633C14.1146 81.5586 13.8477 81.6562 13.4961 81.6562C13.1445 81.6562 12.8776 81.5586 12.6953 81.3633C12.5195 81.168 12.4316 80.9238 12.4316 80.6309ZM18.9941 83.4336L19.0527 84.7617C19.86 83.7461 20.9147 83.2383 22.2168 83.2383C24.4499 83.2383 25.5762 84.498 25.5957 87.0176V94H23.7891V87.0078C23.7826 86.2461 23.6068 85.6829 23.2617 85.3184C22.9232 84.9538 22.3926 84.7715 21.6699 84.7715C21.084 84.7715 20.5697 84.9277 20.127 85.2402C19.6842 85.5527 19.3392 85.9629 19.0918 86.4707V94H17.2852V83.4336H18.9941ZM34.8438 94C34.7396 93.7917 34.6549 93.4206 34.5898 92.8867C33.75 93.7591 32.7474 94.1953 31.582 94.1953C30.5404 94.1953 29.6842 93.9023 29.0137 93.3164C28.3496 92.724 28.0176 91.9753 28.0176 91.0703C28.0176 89.9701 28.4342 89.1172 29.2676 88.5117C30.1074 87.8997 31.2858 87.5938 32.8027 87.5938H34.5605V86.7637C34.5605 86.1322 34.3717 85.6309 33.9941 85.2598C33.6165 84.8822 33.0599 84.6934 32.3242 84.6934C31.6797 84.6934 31.1393 84.8561 30.7031 85.1816C30.2669 85.5072 30.0488 85.901 30.0488 86.3633H28.2324C28.2324 85.8359 28.418 85.3281 28.7891 84.8398C29.1667 84.3451 29.6745 83.9544 30.3125 83.668C30.957 83.3815 31.6634 83.2383 32.4316 83.2383C33.6491 83.2383 34.6029 83.5443 35.293 84.1562C35.9831 84.7617 36.3411 85.5983 36.3672 86.666V91.5293C36.3672 92.4993 36.4909 93.2708 36.7383 93.8438V94H34.8438ZM31.8457 92.623C32.4121 92.623 32.9492 92.4766 33.457 92.1836C33.9648 91.8906 34.3327 91.5098 34.5605 91.041V88.873H33.1445C30.931 88.873 29.8242 89.5208 29.8242 90.8164C29.8242 91.3828 30.013 91.8255 30.3906 92.1445C30.7682 92.4635 31.2533 92.623 31.8457 92.623ZM40.9082 83.4336L40.9668 84.7617C41.7741 83.7461 42.8288 83.2383 44.1309 83.2383C46.3639 83.2383 47.4902 84.498 47.5098 87.0176V94H45.7031V87.0078C45.6966 86.2461 45.5208 85.6829 45.1758 85.3184C44.8372 84.9538 44.3066 84.7715 43.584 84.7715C42.998 84.7715 42.4837 84.9277 42.041 85.2402C41.5983 85.5527 41.2533 85.9629 41.0059 86.4707V94H39.1992V83.4336H40.9082ZM54.4727 92.7207C55.1172 92.7207 55.6803 92.5254 56.1621 92.1348C56.6439 91.7441 56.9108 91.2559 56.9629 90.6699H58.6719C58.6393 91.2754 58.431 91.8516 58.0469 92.3984C57.6628 92.9453 57.1484 93.3815 56.5039 93.707C55.8659 94.0326 55.1888 94.1953 54.4727 94.1953C53.0339 94.1953 51.888 93.7168 51.0352 92.7598C50.1888 91.7962 49.7656 90.4811 49.7656 88.8145V88.5117C49.7656 87.4831 49.9544 86.5684 50.332 85.7676C50.7096 84.9668 51.25 84.3451 51.9531 83.9023C52.6628 83.4596 53.4993 83.2383 54.4629 83.2383C55.6478 83.2383 56.6309 83.5931 57.4121 84.3027C58.1999 85.0124 58.6198 85.9336 58.6719 87.0664H56.9629C56.9108 86.3828 56.6504 85.8229 56.1816 85.3867C55.7194 84.944 55.1465 84.7227 54.4629 84.7227C53.5449 84.7227 52.832 85.0547 52.3242 85.7188C51.8229 86.3763 51.5723 87.3301 51.5723 88.5801V88.9219C51.5723 90.1393 51.8229 91.0768 52.3242 91.7344C52.8255 92.3919 53.5417 92.7207 54.4727 92.7207ZM54.7656 94.0879L54.6484 94.5957C55.6445 94.7715 56.1426 95.3346 56.1426 96.2852C56.1426 96.9167 55.8822 97.4147 55.3613 97.7793C54.8405 98.1504 54.1146 98.3359 53.1836 98.3359L53.1152 97.291C53.6296 97.291 54.0267 97.2064 54.3066 97.0371C54.5931 96.8678 54.7363 96.6302 54.7363 96.3242C54.7363 96.0378 54.6322 95.8262 54.4238 95.6895C54.2155 95.5527 53.7923 95.4551 53.1543 95.3965L53.4668 94.0879H54.7656ZM67.2266 94C67.1224 93.7917 67.0378 93.4206 66.9727 92.8867C66.1328 93.7591 65.1302 94.1953 63.9648 94.1953C62.9232 94.1953 62.0671 93.9023 61.3965 93.3164C60.7324 92.724 60.4004 91.9753 60.4004 91.0703C60.4004 89.9701 60.8171 89.1172 61.6504 88.5117C62.4902 87.8997 63.6686 87.5938 65.1855 87.5938H66.9434V86.7637C66.9434 86.1322 66.7546 85.6309 66.377 85.2598C65.9993 84.8822 65.4427 84.6934 64.707 84.6934C64.0625 84.6934 63.5221 84.8561 63.0859 85.1816C62.6497 85.5072 62.4316 85.901 62.4316 86.3633H60.6152C60.6152 85.8359 60.8008 85.3281 61.1719 84.8398C61.5495 84.3451 62.0573 83.9544 62.6953 83.668C63.3398 83.3815 64.0462 83.2383 64.8145 83.2383C66.0319 83.2383 66.9857 83.5443 67.6758 84.1562C68.3659 84.7617 68.724 85.5983 68.75 86.666V91.5293C68.75 92.4993 68.8737 93.2708 69.1211 93.8438V94H67.2266ZM64.2285 92.623C64.7949 92.623 65.332 92.4766 65.8398 92.1836C66.3477 91.8906 66.7155 91.5098 66.9434 91.041V88.873H65.5273C63.3138 88.873 62.207 89.5208 62.207 90.8164C62.207 91.3828 62.3958 91.8255 62.7734 92.1445C63.151 92.4635 63.6361 92.623 64.2285 92.623ZM77.7344 91.1973C77.7344 90.709 77.5488 90.3314 77.1777 90.0645C76.8132 89.791 76.1719 89.5566 75.2539 89.3613C74.3424 89.166 73.6165 88.9316 73.0762 88.6582C72.5423 88.3848 72.1452 88.0592 71.8848 87.6816C71.6309 87.304 71.5039 86.8548 71.5039 86.334C71.5039 85.4681 71.8685 84.7357 72.5977 84.1367C73.3333 83.5378 74.2708 83.2383 75.4102 83.2383C76.6081 83.2383 77.5781 83.5475 78.3203 84.166C79.069 84.7845 79.4434 85.5755 79.4434 86.5391H77.627C77.627 86.0443 77.4154 85.6178 76.9922 85.2598C76.5755 84.9017 76.0482 84.7227 75.4102 84.7227C74.7526 84.7227 74.2383 84.8659 73.8672 85.1523C73.4961 85.4388 73.3105 85.8132 73.3105 86.2754C73.3105 86.7116 73.4831 87.0404 73.8281 87.2617C74.1732 87.4831 74.7949 87.6947 75.6934 87.8965C76.5983 88.0983 77.3307 88.3392 77.8906 88.6191C78.4505 88.8991 78.8639 89.2376 79.1309 89.6348C79.4043 90.0254 79.541 90.5039 79.541 91.0703C79.541 92.0143 79.1634 92.7728 78.4082 93.3457C77.653 93.9121 76.6732 94.1953 75.4688 94.1953C74.6224 94.1953 73.8737 94.0456 73.2227 93.7461C72.5716 93.4466 72.0605 93.0299 71.6895 92.4961C71.3249 91.9557 71.1426 91.373 71.1426 90.748H72.9492C72.9818 91.3535 73.2227 91.8353 73.6719 92.1934C74.1276 92.5449 74.7266 92.7207 75.4688 92.7207C76.1523 92.7207 76.6992 92.584 77.1094 92.3105C77.526 92.0306 77.7344 91.6595 77.7344 91.1973Z" fill="#F29F05"/>
<g clip-path="url(#clip0_261_130)">
<path opacity="0.926" fill-rule="evenodd" clip-rule="evenodd" d="M54.2734 6.25758C61.3265 5.85834 66.7874 8.57709 70.6562 14.4138C73.75 20.1795 73.75 25.9451 70.6562 31.7107C70.0762 32.469 69.42 32.5626 68.6875 31.992C68.5528 31.753 68.4825 31.4951 68.4766 31.2185C68.8979 30.2109 69.3431 29.2031 69.8125 28.1951C71.8601 21.5946 70.2899 16.0399 65.1016 11.531C59.8281 7.87363 54.3437 7.54551 48.6484 10.5466C43.2694 14.1582 40.9959 19.1972 41.8281 25.6638C43.4275 32.3725 47.6227 36.3335 54.4141 37.5466C56.9346 37.8296 59.3721 37.5015 61.7266 36.5623C63.0804 35.8506 64.4163 35.124 65.7344 34.3826C66.6403 34.6 66.9684 35.1625 66.7187 36.0701C64.2404 38.2107 61.3576 39.4528 58.0703 39.7966C50.9765 40.3395 45.5155 37.6441 41.6875 31.7107C39.0307 26.8684 38.6556 21.8529 40.5625 16.6638C43.2743 10.7279 47.8446 7.25915 54.2734 6.25758Z" fill="#F29F05"/>
<path opacity="0.925" fill-rule="evenodd" clip-rule="evenodd" d="M55.6797 12.1645C56.4168 11.9917 56.9558 12.226 57.2968 12.8677C57.3212 13.4359 57.3915 13.9984 57.5078 14.5552C59.5907 15.1579 60.6922 16.5173 60.8125 18.6333C60.2864 19.4149 59.6536 19.5087 58.914 18.9145C58.087 16.7742 56.6339 16.1882 54.5547 17.1567C53.4429 18.2647 53.2788 19.507 54.0625 20.8833C54.9763 21.7528 56.0778 22.1512 57.3672 22.0786C60.1141 23.0461 61.3094 24.9914 60.9531 27.9145C60.5086 29.7889 59.3601 31.0077 57.5078 31.5708C57.3915 32.1275 57.3212 32.69 57.2968 33.2583C56.9544 33.9226 56.4153 34.1335 55.6797 33.8911C55.5509 33.8385 55.4336 33.7682 55.3281 33.6802C55.1329 32.995 55.0626 32.2919 55.1172 31.5708C53.3363 31.2196 52.141 30.1884 51.5313 28.477C51.3032 27.1706 51.8422 26.6784 53.1484 27.0005C53.5827 27.6815 54.0514 28.3377 54.5547 28.9692C55.9238 29.7245 57.1661 29.5604 58.2812 28.477C59.2145 26.6367 58.7692 25.2538 56.9453 24.3286C52.691 24.0607 50.8864 21.8341 51.5313 17.6489C52.141 15.9375 53.3363 14.9063 55.1172 14.5552C55.0938 13.944 55.1173 13.3346 55.1875 12.727C55.2845 12.4669 55.4485 12.2793 55.6797 12.1645Z" fill="#F29F05"/>
<path opacity="0.926" fill-rule="evenodd" clip-rule="evenodd" d="M75.9297 46.4766C75.9297 47.1797 75.9297 47.8828 75.9297 48.5859C75.6145 49.6107 75.0051 50.4309 74.1016 51.0469C65.5012 55.558 56.9231 60.1048 48.3672 64.6875C45.9766 65.9063 43.5859 65.9063 41.1953 64.6875C37.6615 62.6765 34.1459 60.6375 30.6484 58.5703C30.1892 57.357 30.611 56.771 31.9141 56.8125C35.6883 58.9576 39.4852 61.0669 43.3047 63.1406C44.0918 63.3453 44.8885 63.3922 45.6953 63.2812C46.76 62.8896 47.7913 62.4207 48.7891 61.875C57.0041 57.5488 65.1838 53.1659 73.3281 48.7266C73.9193 47.6683 73.7552 46.7543 72.8359 45.9844C72.3383 45.7729 71.8227 45.726 71.2891 45.8437C64.767 47.7907 58.2513 49.7594 51.7422 51.75C50.1288 53.7978 48.0194 54.6415 45.4141 54.2812C44.6221 54.1109 43.872 53.8297 43.1641 53.4375C40.539 51.7032 37.9141 49.9687 35.2891 48.2344C34.3645 47.5125 34.3645 46.8094 35.2891 46.125C35.6171 46.0312 35.9454 46.0312 36.2734 46.125C39.0391 47.9531 41.8046 49.7812 44.5703 51.6094C46.2004 52.3645 47.7473 52.2239 49.2109 51.1875C49.6563 50.7168 50.0313 50.2011 50.3359 49.6406C50.2291 49.438 50.1354 49.227 50.0547 49.0078C45.2041 45.6216 40.3292 42.2699 35.4297 38.9531C33.033 37.5458 30.4548 37.0301 27.6953 37.4063C23.9489 38.2071 20.1989 38.9806 16.4453 39.7266C17.2909 44.2128 18.2518 48.6658 19.3281 53.0859C21.2432 52.4971 23.1416 52.5674 25.0234 53.2969C26.2052 53.8052 27.3069 54.438 28.3281 55.1953C28.6614 56.4702 28.1692 57.0092 26.8516 56.8125C25.7354 56.1372 24.5636 55.5747 23.3359 55.125C21.8511 54.8141 20.3979 54.9312 18.9766 55.4765C18.3862 56.9341 17.3549 57.9418 15.8828 58.5C12.466 59.319 9.04413 60.1159 5.61719 60.8906C4.92193 61.0885 4.35943 60.9245 3.92969 60.3984C3.92969 60.0234 3.92969 59.6485 3.92969 59.2734C4.14207 59.0855 4.37644 58.9214 4.63281 58.7812C8.24796 57.9594 11.8573 57.1157 15.4609 56.25C16.4217 55.7117 16.9373 54.8914 17.0078 53.789C16.1209 49.4246 15.2068 45.0652 14.2656 40.7109C13.9921 39.2185 13.1015 38.4216 11.5938 38.3203C9.43372 38.7242 7.27746 39.1461 5.125 39.5859C4.59573 39.6374 4.19729 39.45 3.92969 39.0234C3.92969 38.6484 3.92969 38.2735 3.92969 37.8984C4.15655 37.6495 4.4378 37.4856 4.77344 37.4063C6.73825 36.9664 8.707 36.5445 10.6797 36.1406C12.5529 35.8245 14.1232 36.3635 15.3906 37.7578C19.3818 36.8376 23.3897 35.9705 27.4141 35.1563C30.7896 34.7231 33.9303 35.3793 36.8359 37.125C41.711 40.4532 46.5859 43.7812 51.4609 47.1094C52.0365 47.6744 52.4116 48.354 52.5859 49.1484C58.7131 47.2545 64.8538 45.4029 71.0078 43.5937C73.4365 43.2598 75.0772 44.2207 75.9297 46.4766Z" fill="#F29F05"/>
<path opacity="0.856" fill-rule="evenodd" clip-rule="evenodd" d="M11.2422 40.2892C12.6245 40.0543 13.1636 40.6168 12.8594 41.9767C12.2031 42.7267 11.5469 42.7267 10.8906 41.9767C10.6123 41.3345 10.7295 40.772 11.2422 40.2892Z" fill="#F29F05"/>
</g>
<defs>
<clipPath id="clip0_261_130">
<rect width="72" height="72" fill="white" transform="translate(4)"/>
</clipPath>
</defs>
</svg>
