<svg width="35" height="35" viewBox="0 0 35 35" fill="none" xmlns="http://www.w3.org/2000/svg">
<path d="M15.9318 0.0424693C12.5471 0.371143 9.42275 1.61736 6.68208 3.72635C5.34601 4.75346 3.61254 6.68442 2.6122 8.25931C2.18054 8.9372 1.33779 10.6627 1.03631 11.4844C0.700582 12.402 0.337444 13.8125 0.159301 14.9013C-0.0531004 16.2365 -0.0531004 18.77 0.159301 20.1053C0.467626 21.9951 0.954094 23.5153 1.78314 25.2066C2.68756 27.0485 3.62624 28.3563 5.13361 29.8696C6.64782 31.376 7.95649 32.3141 9.79959 33.218C11.4919 34.0465 13.013 34.5327 14.9041 34.8408C16.2402 35.0531 18.7753 35.0531 20.1113 34.8408C22.0024 34.5327 23.5235 34.0465 25.2158 33.218C27.0589 32.3141 28.3676 31.376 29.8818 29.8696C31.3892 28.3563 32.3279 27.0485 33.2323 25.2066C33.8352 23.9809 34.1367 23.1797 34.4656 21.9472C34.8972 20.3038 35 19.4068 35 17.5033C35 15.5997 34.8972 14.7027 34.4656 13.0593C34.1367 11.8268 33.8352 11.0256 33.2323 9.79997C32.3279 7.95803 31.3892 6.65018 29.8818 5.13691C28.3676 3.63049 27.0589 2.6924 25.2158 1.78855C23.5303 0.960017 21.9681 0.467006 20.1456 0.179417C19.1384 0.0219272 16.8911 -0.0533939 15.9318 0.0424693ZM25.6749 9.55346C26.0791 9.83421 26.2436 10.1355 26.2436 10.6285C26.2436 11.0051 26.2162 11.0873 26.0312 11.3201C25.9147 11.4639 25.716 11.6419 25.5858 11.7172C25.3597 11.8542 25.2295 11.8542 17.5077 11.8542C9.78589 11.8542 9.6557 11.8542 9.4296 11.7172C8.88147 11.3954 8.6211 10.7791 8.79925 10.2314C8.90202 9.93007 9.31312 9.50553 9.58719 9.43021C9.71052 9.38913 13.1569 9.36859 17.6173 9.37543L25.4282 9.38913L25.6749 9.55346ZM25.6269 16.4282C26.4834 16.9144 26.4834 18.0921 25.6269 18.5783L25.3529 18.7358H17.5077H9.66256L9.38849 18.5783C9.23775 18.4961 9.04591 18.3249 8.96369 18.1948C8.55259 17.5854 8.74443 16.7911 9.38849 16.4282L9.66256 16.2707H17.5077H25.3529L25.6269 16.4282ZM25.5858 23.2893C25.716 23.3646 25.9147 23.5426 26.0312 23.6864C26.2162 23.9192 26.2436 24.0014 26.2436 24.378C26.2436 24.871 26.0791 25.1723 25.6749 25.4531L25.4282 25.6174H17.5077H9.58719L9.34053 25.4531C8.66221 24.9874 8.54573 24.1794 9.06646 23.5974C9.51867 23.0907 8.98424 23.1181 17.6105 23.1386C25.2158 23.1523 25.3597 23.1523 25.5858 23.2893Z" fill="#A66329"/>
</svg>
