<svg width="92" height="99" viewBox="0 0 92 99" fill="none" xmlns="http://www.w3.org/2000/svg">
<path d="M3.52539 84.4336V90H1.65039V75.7812H6.89453C8.45052 75.7812 9.66797 76.1784 10.5469 76.9727C11.4323 77.7669 11.875 78.8184 11.875 80.127C11.875 81.5072 11.4421 82.5716 10.5762 83.3203C9.7168 84.0625 8.48307 84.4336 6.875 84.4336H3.52539ZM3.52539 82.9004H6.89453C7.89714 82.9004 8.66536 82.666 9.19922 82.1973C9.73307 81.722 10 81.0384 10 80.1465C10 79.3001 9.73307 78.623 9.19922 78.1152C8.66536 77.6074 7.93294 77.3438 7.00195 77.3242H3.52539V82.9004ZM20.3906 90C20.2865 89.7917 20.2018 89.4206 20.1367 88.8867C19.2969 89.7591 18.2943 90.1953 17.1289 90.1953C16.0872 90.1953 15.2311 89.9023 14.5605 89.3164C13.8965 88.724 13.5645 87.9753 13.5645 87.0703C13.5645 85.9701 13.9811 85.1172 14.8145 84.5117C15.6543 83.8997 16.8327 83.5938 18.3496 83.5938H20.1074V82.7637C20.1074 82.1322 19.9186 81.6309 19.541 81.2598C19.1634 80.8822 18.6068 80.6934 17.8711 80.6934C17.2266 80.6934 16.6862 80.8561 16.25 81.1816C15.8138 81.5072 15.5957 81.901 15.5957 82.3633H13.7793C13.7793 81.8359 13.9648 81.3281 14.3359 80.8398C14.7135 80.3451 15.2214 79.9544 15.8594 79.668C16.5039 79.3815 17.2103 79.2383 17.9785 79.2383C19.196 79.2383 20.1497 79.5443 20.8398 80.1562C21.5299 80.7617 21.888 81.5983 21.9141 82.666V87.5293C21.9141 88.4993 22.0378 89.2708 22.2852 89.8438V90H20.3906ZM17.3926 88.623C17.959 88.623 18.4961 88.4766 19.0039 88.1836C19.5117 87.8906 19.8796 87.5098 20.1074 87.041V84.873H18.6914C16.4779 84.873 15.3711 85.5208 15.3711 86.8164C15.3711 87.3828 15.5599 87.8255 15.9375 88.1445C16.3151 88.4635 16.8001 88.623 17.3926 88.623ZM28.9844 88.7207C29.6289 88.7207 30.1921 88.5254 30.6738 88.1348C31.1556 87.7441 31.4225 87.2559 31.4746 86.6699H33.1836C33.151 87.2754 32.9427 87.8516 32.5586 88.3984C32.1745 88.9453 31.6602 89.3815 31.0156 89.707C30.3776 90.0326 29.7005 90.1953 28.9844 90.1953C27.5456 90.1953 26.3997 89.7168 25.5469 88.7598C24.7005 87.7962 24.2773 86.4811 24.2773 84.8145V84.5117C24.2773 83.4831 24.4661 82.5684 24.8438 81.7676C25.2214 80.9668 25.7617 80.3451 26.4648 79.9023C27.1745 79.4596 28.0111 79.2383 28.9746 79.2383C30.1595 79.2383 31.1426 79.5931 31.9238 80.3027C32.7116 81.0124 33.1315 81.9336 33.1836 83.0664H31.4746C31.4225 82.3828 31.1621 81.8229 30.6934 81.3867C30.2311 80.944 29.6582 80.7227 28.9746 80.7227C28.0566 80.7227 27.3438 81.0547 26.8359 81.7188C26.3346 82.3763 26.084 83.3301 26.084 84.5801V84.9219C26.084 86.1393 26.3346 87.0768 26.8359 87.7344C27.3372 88.3919 28.0534 88.7207 28.9844 88.7207ZM37.1777 90H35.3711V79.4336H37.1777V90ZM35.2246 76.6309C35.2246 76.3379 35.3125 76.0905 35.4883 75.8887C35.6706 75.6868 35.9375 75.5859 36.2891 75.5859C36.6406 75.5859 36.9076 75.6868 37.0898 75.8887C37.2721 76.0905 37.3633 76.3379 37.3633 76.6309C37.3633 76.9238 37.2721 77.168 37.0898 77.3633C36.9076 77.5586 36.6406 77.6562 36.2891 77.6562C35.9375 77.6562 35.6706 77.5586 35.4883 77.3633C35.3125 77.168 35.2246 76.9238 35.2246 76.6309ZM44.4629 90.1953C43.0306 90.1953 41.8652 89.7266 40.9668 88.7891C40.0684 87.8451 39.6191 86.5853 39.6191 85.0098V84.6777C39.6191 83.6296 39.8177 82.6953 40.2148 81.875C40.6185 81.0482 41.1784 80.4036 41.8945 79.9414C42.6172 79.4727 43.3984 79.2383 44.2383 79.2383C45.612 79.2383 46.6797 79.6908 47.4414 80.5957C48.2031 81.5007 48.584 82.7962 48.584 84.4824V85.2344H41.4258C41.4518 86.276 41.7546 87.1191 42.334 87.7637C42.9199 88.4017 43.6621 88.7207 44.5605 88.7207C45.1986 88.7207 45.7389 88.5905 46.1816 88.3301C46.6243 88.0697 47.0117 87.7246 47.3438 87.2949L48.4473 88.1543C47.5618 89.515 46.2337 90.1953 44.4629 90.1953ZM44.2383 80.7227C43.5091 80.7227 42.8971 80.9896 42.4023 81.5234C41.9076 82.0508 41.6016 82.793 41.4844 83.75H46.7773V83.6133C46.7253 82.6953 46.4779 81.9857 46.0352 81.4844C45.5924 80.9766 44.9935 80.7227 44.2383 80.7227ZM52.3926 79.4336L52.4512 80.7617C53.2585 79.7461 54.3132 79.2383 55.6152 79.2383C57.8483 79.2383 58.9746 80.498 58.9941 83.0176V90H57.1875V83.0078C57.181 82.2461 57.0052 81.6829 56.6602 81.3184C56.3216 80.9538 55.791 80.7715 55.0684 80.7715C54.4824 80.7715 53.9681 80.9277 53.5254 81.2402C53.0827 81.5527 52.7376 81.9629 52.4902 82.4707V90H50.6836V79.4336H52.3926ZM64.1699 76.875V79.4336H66.1426V80.8301H64.1699V87.3828C64.1699 87.806 64.2578 88.125 64.4336 88.3398C64.6094 88.5482 64.9089 88.6523 65.332 88.6523C65.5404 88.6523 65.8268 88.6133 66.1914 88.5352V90C65.7161 90.1302 65.2539 90.1953 64.8047 90.1953C63.9974 90.1953 63.3887 89.9512 62.9785 89.4629C62.5684 88.9746 62.3633 88.2812 62.3633 87.3828V80.8301H60.4395V79.4336H62.3633V76.875H64.1699ZM72.6465 90.1953C71.2142 90.1953 70.0488 89.7266 69.1504 88.7891C68.252 87.8451 67.8027 86.5853 67.8027 85.0098V84.6777C67.8027 83.6296 68.0013 82.6953 68.3984 81.875C68.8021 81.0482 69.362 80.4036 70.0781 79.9414C70.8008 79.4727 71.582 79.2383 72.4219 79.2383C73.7956 79.2383 74.8633 79.6908 75.625 80.5957C76.3867 81.5007 76.7676 82.7962 76.7676 84.4824V85.2344H69.6094C69.6354 86.276 69.9382 87.1191 70.5176 87.7637C71.1035 88.4017 71.8457 88.7207 72.7441 88.7207C73.3822 88.7207 73.9225 88.5905 74.3652 88.3301C74.8079 88.0697 75.1953 87.7246 75.5273 87.2949L76.6309 88.1543C75.7454 89.515 74.4173 90.1953 72.6465 90.1953ZM72.4219 80.7227C71.6927 80.7227 71.0807 80.9896 70.5859 81.5234C70.0911 82.0508 69.7852 82.793 69.668 83.75H74.9609V83.6133C74.9089 82.6953 74.6615 81.9857 74.2188 81.4844C73.776 80.9766 73.1771 80.7227 72.4219 80.7227ZM85.0195 87.1973C85.0195 86.709 84.834 86.3314 84.4629 86.0645C84.0983 85.791 83.457 85.5566 82.5391 85.3613C81.6276 85.166 80.9017 84.9316 80.3613 84.6582C79.8275 84.3848 79.4303 84.0592 79.1699 83.6816C78.916 83.304 78.7891 82.8548 78.7891 82.334C78.7891 81.4681 79.1536 80.7357 79.8828 80.1367C80.6185 79.5378 81.556 79.2383 82.6953 79.2383C83.8932 79.2383 84.8633 79.5475 85.6055 80.166C86.3542 80.7845 86.7285 81.5755 86.7285 82.5391H84.9121C84.9121 82.0443 84.7005 81.6178 84.2773 81.2598C83.8607 80.9017 83.3333 80.7227 82.6953 80.7227C82.0378 80.7227 81.5234 80.8659 81.1523 81.1523C80.7812 81.4388 80.5957 81.8132 80.5957 82.2754C80.5957 82.7116 80.7682 83.0404 81.1133 83.2617C81.4583 83.4831 82.0801 83.6947 82.9785 83.8965C83.8835 84.0983 84.6159 84.3392 85.1758 84.6191C85.7357 84.8991 86.1491 85.2376 86.416 85.6348C86.6895 86.0254 86.8262 86.5039 86.8262 87.0703C86.8262 88.0143 86.4486 88.7728 85.6934 89.3457C84.9382 89.9121 83.9583 90.1953 82.7539 90.1953C81.9076 90.1953 81.1589 90.0456 80.5078 89.7461C79.8568 89.4466 79.3457 89.0299 78.9746 88.4961C78.61 87.9557 78.4277 87.373 78.4277 86.748H80.2344C80.2669 87.3535 80.5078 87.8353 80.957 88.1934C81.4128 88.5449 82.0117 88.7207 82.7539 88.7207C83.4375 88.7207 83.9844 88.584 84.3945 88.3105C84.8112 88.0306 85.0195 87.6595 85.0195 87.1973Z" fill="#F29F05"/>
<g clip-path="url(#clip0_261_55)" filter="url(#filter0_d_261_55)">
<path d="M38.5011 0.140625C32.6511 1.06875 27.898 5.24531 26.2668 10.8844C25.7464 12.6703 25.5496 14.7516 25.7605 16.4813C26.4918 22.8375 30.7246 27.7875 36.8699 29.5031C38.0793 29.8406 38.4308 29.8828 40.6668 29.8828C43.4511 29.8828 44.5058 29.6719 46.7136 28.7016C53.5199 25.7203 57.1339 18 55.0668 10.8844C53.5902 5.77969 49.498 1.8 44.3933 0.478127C42.8183 0.0843754 39.9636 -0.0843735 38.5011 0.140625ZM43.6058 3.38906C47.9793 4.48594 51.523 8.19844 52.4089 12.6422C52.7324 14.2031 52.6339 16.7766 52.2121 18.2531C51.0589 22.2188 47.9793 25.3125 43.9714 26.5219C42.8464 26.8594 42.4808 26.9016 40.6668 26.9016C38.8527 26.9016 38.4871 26.8594 37.3621 26.5219C34.0996 25.5375 31.4699 23.3438 29.9793 20.3766C29.1636 18.7594 28.8402 17.5078 28.7558 15.525C28.6011 12.0375 29.6558 9.21094 32.0746 6.70781C35.0699 3.58594 39.4152 2.33438 43.6058 3.38906Z" fill="#F29F05"/>
<path d="M24.8182 36.2109C21.9917 36.7171 19.6854 37.9546 17.6042 40.064C15.7901 41.8921 14.637 43.9312 13.9901 46.4906C13.7651 47.3625 13.737 48.2484 13.737 54.8015V62.1562L14.1307 62.5359L14.5104 62.9297L28.4745 62.9718C41.187 63.014 42.4667 63 42.8604 62.789C43.6761 62.3531 43.887 61.214 43.2823 60.5109L42.9448 60.1172L29.8104 60.0468L16.6901 59.9765V54C16.6901 48.839 16.7323 47.8968 16.9432 47.0812C17.7448 43.889 19.9245 41.2593 22.8917 39.9234C24.9307 38.9953 24.087 39.0515 40.1886 38.9531C54.2511 38.8828 54.8557 38.8687 55.137 38.6156C55.6011 38.1937 55.7698 37.5187 55.5167 36.9421C55.1089 35.9437 56.0511 36 40.1464 36.014C29.0651 36.0281 25.6057 36.0703 24.8182 36.2109Z" fill="#F29F05"/>
<path d="M64.9245 36.1969C64.0104 36.4922 63.5323 36.7875 62.9276 37.4484C61.7323 38.7422 61.6198 39.3047 61.6198 44.1562V47.9531H57.8229C53.8011 47.9531 52.9151 48.0516 51.9729 48.5859C51.1714 49.05 50.3136 50.0344 50.0042 50.85C49.7792 51.4406 49.737 51.9187 49.737 54.0703C49.737 56.4328 49.7651 56.6437 50.0745 57.3469C50.4823 58.2609 51.6495 59.3578 52.5776 59.7094C53.1542 59.9344 53.8292 59.9766 57.4433 60.0187L61.6198 60.0609V63.8437C61.6198 67.8656 61.7183 68.7516 62.2526 69.6937C62.7167 70.4953 63.7011 71.3531 64.5167 71.6625C65.1073 71.8875 65.5854 71.9297 67.737 71.9297C70.0995 71.9297 70.3104 71.9016 71.0136 71.5922C71.9276 71.1844 73.0245 70.0172 73.3761 69.0891C73.6011 68.5125 73.6433 67.8375 73.6854 64.2375L73.7276 60.0609L77.9042 60.0187C81.5042 59.9766 82.1792 59.9344 82.7558 59.7094C83.6839 59.3578 84.8511 58.2609 85.2589 57.3469C85.5823 56.6437 85.5964 56.4328 85.5964 54C85.5964 51.5672 85.5823 51.3562 85.2589 50.6531C84.8511 49.7391 83.6839 48.6422 82.7558 48.2906C82.1792 48.0656 81.5042 48.0234 77.9042 47.9812L73.7276 47.9391L73.6854 43.7625C73.6151 38.9531 73.5729 38.7422 72.4339 37.4906C71.3089 36.2672 70.7464 36.0844 67.8776 36.0422C66.2042 36.0141 65.3183 36.0562 64.9245 36.1969ZM69.6917 39.15C70.6339 39.5437 70.6198 39.4734 70.6198 44.8312C70.6198 50.2172 70.6479 50.4 71.5339 50.8219C71.9276 51.0187 72.7151 51.0469 76.8354 51.0469C82.1933 51.0469 82.1229 51.0328 82.5167 51.975C82.7839 52.6078 82.7839 55.3922 82.5167 56.025C82.1229 56.9672 82.1933 56.9531 76.8354 56.9531C71.4495 56.9531 71.2667 56.9812 70.8448 57.8672C70.6479 58.2609 70.6198 59.0484 70.6198 63.1687C70.6198 68.5266 70.6339 68.4562 69.6917 68.85C69.0589 69.1172 66.2745 69.1172 65.6417 68.85C64.6995 68.4562 64.7136 68.5266 64.7136 63.1687C64.7136 59.0484 64.6854 58.2609 64.4886 57.8672C64.0667 56.9812 63.8839 56.9531 58.4979 56.9531C53.1401 56.9531 53.2104 56.9672 52.8167 56.025C52.5495 55.3922 52.5495 52.6078 52.8167 51.975C53.2104 51.0328 53.1401 51.0469 58.4979 51.0469C62.6183 51.0469 63.4058 51.0187 63.7995 50.8219C64.6854 50.4 64.7136 50.2172 64.7136 44.8312C64.7136 39.5016 64.6995 39.5437 65.6136 39.15C66.2183 38.8969 69.0589 38.8828 69.6917 39.15Z" fill="#F29F05"/>
</g>
<defs>
<filter id="filter0_d_261_55" x="7.35087" y="0" width="84.6316" height="84.6316" filterUnits="userSpaceOnUse" color-interpolation-filters="sRGB">
<feFlood flood-opacity="0" result="BackgroundImageFix"/>
<feColorMatrix in="SourceAlpha" type="matrix" values="0 0 0 0 0 0 0 0 0 0 0 0 0 0 0 0 0 0 127 0" result="hardAlpha"/>
<feOffset dy="6.31579"/>
<feGaussianBlur stdDeviation="3.15789"/>
<feComposite in2="hardAlpha" operator="out"/>
<feColorMatrix type="matrix" values="0 0 0 0 0 0 0 0 0 0 0 0 0 0 0 0 0 0 0.25 0"/>
<feBlend mode="normal" in2="BackgroundImageFix" result="effect1_dropShadow_261_55"/>
<feBlend mode="normal" in="SourceGraphic" in2="effect1_dropShadow_261_55" result="shape"/>
</filter>
<clipPath id="clip0_261_55">
<rect width="72" height="72" fill="white" transform="translate(13.6667)"/>
</clipPath>
</defs>
</svg>
