<svg width="92" height="99" viewBox="0 0 92 99" fill="none" xmlns="http://www.w3.org/2000/svg">
<g clip-path="url(#clip0_261_105)">
<path d="M35.2282 0.126656C33.8922 0.450096 32.4157 1.77197 32.0641 2.93916L31.9094 3.48759L27.6625 3.54385C22.8531 3.62822 22.3047 3.72665 20.7156 4.78134C19.3375 5.70947 18.4938 6.79228 17.8469 8.52197L17.5235 9.35166L17.4813 36.9845C17.4531 55.3782 17.4953 64.997 17.5797 65.7423C17.9735 68.6954 20.2938 71.2407 23.1906 71.8454C24.2453 72.0704 67.7547 72.0704 68.8094 71.8454C71.7063 71.2407 74.0266 68.6954 74.4203 65.7423C74.5047 64.997 74.5469 55.3782 74.5188 37.0548L74.4766 9.49228L74.1672 8.57822C73.3938 6.30009 71.7203 4.64072 69.4985 3.90947C68.6547 3.64228 68.1625 3.61416 64.3375 3.54385L60.1188 3.48759L59.8797 2.79853C59.5703 1.95478 58.5578 0.886032 57.6016 0.421967L56.8985 0.0704041L46.2813 0.0422821C40.4453 0.0282211 35.4672 0.0704041 35.2282 0.126656ZM56.9266 2.61572C57.1375 2.77041 57.461 3.12197 57.6438 3.37509C57.9391 3.81104 57.9532 3.97978 57.9532 6.2579C57.9532 8.53603 57.9391 8.70478 57.6297 9.15478C57.461 9.42197 57.0391 9.77353 56.6875 9.94228L56.0688 10.2657H46H35.9313L35.3125 9.94228C34.961 9.77353 34.5391 9.42197 34.3703 9.15478C34.061 8.70478 34.0469 8.53603 34.0469 6.30009C34.0469 3.76884 34.1172 3.47353 34.7782 2.85478C34.9469 2.68604 35.2563 2.48916 35.4532 2.40479C35.6782 2.3204 39.475 2.27822 46.1688 2.29228C56.4344 2.3204 56.5328 2.3204 56.9266 2.61572ZM31.7688 6.42666L31.811 7.01728L27.6906 7.05947C23.7813 7.10165 23.5422 7.11572 23.0078 7.41103C22.2625 7.80478 21.6156 8.50791 21.2641 9.28135C20.9828 9.91416 20.9688 10.0548 20.9688 37.7017C20.9688 68.2313 20.9125 66.0798 21.8125 67.2188C22.0516 67.5142 22.5719 67.922 22.9656 68.1188L23.6969 68.4845H46H68.3032L69.0344 68.1188C69.4282 67.922 69.9485 67.5142 70.1875 67.2188C71.1016 66.0657 71.0313 68.2032 71.0032 37.547C70.961 10.6313 70.9469 9.61885 70.6938 9.14072C70.3282 8.45166 69.6532 7.7626 68.9922 7.41103C68.4578 7.11572 68.2188 7.10165 64.3094 7.05947L60.1891 7.01728L60.2313 6.42666L60.2735 5.83603L63.5078 5.79385C67.0797 5.75166 68.6266 5.89228 69.4985 6.34229C70.4407 6.8204 71.3688 7.79072 71.8188 8.76103L72.2266 9.63291L72.2688 37.2517C72.2828 55.5048 72.2547 65.1517 72.1563 65.6579C71.861 67.2892 70.8485 68.611 69.3719 69.3001L68.5703 69.6798H46H23.4297L22.6281 69.3001C21.1516 68.611 20.1391 67.2892 19.8438 65.6579C19.7453 65.1517 19.7172 55.5048 19.7313 37.2517L19.7735 9.63291L20.1813 8.76103C20.6313 7.79072 21.5594 6.8204 22.5016 6.34229C23.3875 5.87822 24.3578 5.79385 28.211 5.82197L31.7266 5.83603L31.7688 6.42666ZM32.2188 9.9001C32.6407 10.786 33.5125 11.6298 34.4407 12.0657L35.2422 12.4454H46H56.7578L57.5594 12.0657C58.4875 11.6298 59.3594 10.786 59.7813 9.9001L60.0907 9.28135H63.8875C68.0078 9.28135 68.2891 9.32353 68.6266 10.0829C68.7391 10.322 68.7813 18.4501 68.7813 37.9126V65.4188L68.3735 65.8267L67.9657 66.2345H46H24.0344L23.6266 65.8267L23.2188 65.4188V37.8704C23.2328 15.286 23.261 10.2798 23.4156 9.99853C23.7953 9.32353 24.0203 9.29541 28.0985 9.28135H31.9094L32.2188 9.9001Z" fill="#F29F05"/>
<path d="M28.4922 22.1061C27.775 22.4858 27.6344 23.3577 28.1828 23.878L28.5062 24.1874H40.6141H52.7359L53.0172 23.8218C53.5094 23.1889 53.3547 22.4718 52.6516 22.1061C52.2297 21.8811 28.9 21.8811 28.4922 22.1061Z" fill="#F29F05"/>
<path d="M28.1687 29.7141C27.6062 30.3047 27.8312 31.1907 28.6187 31.5C29.1531 31.6969 62.8469 31.6969 63.3812 31.5C64.1828 31.1907 64.4078 30.2485 63.8172 29.7001L63.4937 29.3907H45.9859H28.464L28.1687 29.7141Z" fill="#F29F05"/>
<path d="M28.1687 37.0269C27.8593 37.3504 27.775 37.8707 27.9437 38.3207C28.1968 38.9675 27.9015 38.9535 43.4969 38.9535C59.2469 38.9535 58.6844 38.9816 59.0359 38.2222C59.2609 37.7863 59.05 37.055 58.6562 36.8441C58.4875 36.7597 52.9187 36.7035 43.4265 36.7035H28.464L28.1687 37.0269Z" fill="#F29F05"/>
<path d="M28.2109 44.3672C27.9859 44.5781 27.8593 44.8734 27.8593 45.1406C27.8593 45.4078 27.9859 45.7031 28.2109 45.9141L28.5484 46.2656H42.2734H56.0124L56.4203 45.8578C56.8562 45.4078 56.9124 45.1547 56.6593 44.6766C56.3078 44.0016 56.8562 44.0297 42.3015 44.0156H28.5484L28.2109 44.3672Z" fill="#F29F05"/>
<path d="M28.4641 51.4685C27.775 51.7498 27.6344 52.8185 28.225 53.2826C28.6047 53.5779 28.6047 53.5779 46.0281 53.5779H63.4516L63.7891 53.2263C64.2109 52.8185 64.2391 52.1857 63.8734 51.7357L63.6063 51.3982L46.1828 51.3701C36.325 51.356 28.6469 51.3982 28.4641 51.4685Z" fill="#F29F05"/>
</g>
<path d="M6.86523 91.248H3.52539V97H1.64062V82.7812H6.34766C7.94922 82.7812 9.17969 83.1458 10.0391 83.875C10.9049 84.6042 11.3379 85.6654 11.3379 87.0586C11.3379 87.944 11.097 88.7155 10.6152 89.373C10.14 90.0306 9.47591 90.5221 8.62305 90.8477L11.9629 96.8828V97H9.95117L6.86523 91.248ZM3.52539 89.7148H6.40625C7.33724 89.7148 8.07617 89.474 8.62305 88.9922C9.17643 88.5104 9.45312 87.8659 9.45312 87.0586C9.45312 86.1797 9.18945 85.5059 8.66211 85.0371C8.14128 84.5684 7.38607 84.3307 6.39648 84.3242H3.52539V89.7148ZM18.0762 97.1953C16.6439 97.1953 15.4785 96.7266 14.5801 95.7891C13.6816 94.8451 13.2324 93.5853 13.2324 92.0098V91.6777C13.2324 90.6296 13.431 89.6953 13.8281 88.875C14.2318 88.0482 14.7917 87.4036 15.5078 86.9414C16.2305 86.4727 17.0117 86.2383 17.8516 86.2383C19.2253 86.2383 20.293 86.6908 21.0547 87.5957C21.8164 88.5007 22.1973 89.7962 22.1973 91.4824V92.2344H15.0391C15.0651 93.276 15.3678 94.1191 15.9473 94.7637C16.5332 95.4017 17.2754 95.7207 18.1738 95.7207C18.8118 95.7207 19.3522 95.5905 19.7949 95.3301C20.2376 95.0697 20.625 94.7246 20.957 94.2949L22.0605 95.1543C21.1751 96.515 19.847 97.1953 18.0762 97.1953ZM17.8516 87.7227C17.1224 87.7227 16.5104 87.9896 16.0156 88.5234C15.5208 89.0508 15.2148 89.793 15.0977 90.75H20.3906V90.6133C20.3385 89.6953 20.0911 88.9857 19.6484 88.4844C19.2057 87.9766 18.6068 87.7227 17.8516 87.7227ZM26.2598 97H24.4531V82H26.2598V97ZM35.6836 97C35.5794 96.7917 35.4948 96.4206 35.4297 95.8867C34.5898 96.7591 33.5872 97.1953 32.4219 97.1953C31.3802 97.1953 30.5241 96.9023 29.8535 96.3164C29.1895 95.724 28.8574 94.9753 28.8574 94.0703C28.8574 92.9701 29.2741 92.1172 30.1074 91.5117C30.9473 90.8997 32.1257 90.5938 33.6426 90.5938H35.4004V89.7637C35.4004 89.1322 35.2116 88.6309 34.834 88.2598C34.4564 87.8822 33.8997 87.6934 33.1641 87.6934C32.5195 87.6934 31.9792 87.8561 31.543 88.1816C31.1068 88.5072 30.8887 88.901 30.8887 89.3633H29.0723C29.0723 88.8359 29.2578 88.3281 29.6289 87.8398C30.0065 87.3451 30.5143 86.9544 31.1523 86.668C31.7969 86.3815 32.5033 86.2383 33.2715 86.2383C34.4889 86.2383 35.4427 86.5443 36.1328 87.1562C36.8229 87.7617 37.181 88.5983 37.207 89.666V94.5293C37.207 95.4993 37.3307 96.2708 37.5781 96.8438V97H35.6836ZM32.6855 95.623C33.252 95.623 33.7891 95.4766 34.2969 95.1836C34.8047 94.8906 35.1725 94.5098 35.4004 94.041V91.873H33.9844C31.7708 91.873 30.6641 92.5208 30.6641 93.8164C30.6641 94.3828 30.8529 94.8255 31.2305 95.1445C31.6081 95.4635 32.0931 95.623 32.6855 95.623ZM42.4902 83.875V86.4336H44.4629V87.8301H42.4902V94.3828C42.4902 94.806 42.5781 95.125 42.7539 95.3398C42.9297 95.5482 43.2292 95.6523 43.6523 95.6523C43.8607 95.6523 44.1471 95.6133 44.5117 95.5352V97C44.0365 97.1302 43.5742 97.1953 43.125 97.1953C42.3177 97.1953 41.709 96.9512 41.2988 96.4629C40.8887 95.9746 40.6836 95.2812 40.6836 94.3828V87.8301H38.7598V86.4336H40.6836V83.875H42.4902ZM45.9082 91.6191C45.9082 90.584 46.11 89.653 46.5137 88.8262C46.9238 87.9993 47.4902 87.3613 48.2129 86.9121C48.9421 86.4629 49.7721 86.2383 50.7031 86.2383C52.1419 86.2383 53.304 86.7363 54.1895 87.7324C55.0814 88.7285 55.5273 90.0534 55.5273 91.707V91.834C55.5273 92.8626 55.3288 93.7871 54.9316 94.6074C54.541 95.4212 53.9779 96.056 53.2422 96.5117C52.513 96.9674 51.6732 97.1953 50.7227 97.1953C49.2904 97.1953 48.1283 96.6973 47.2363 95.7012C46.3509 94.7051 45.9082 93.3867 45.9082 91.7461V91.6191ZM47.7246 91.834C47.7246 93.0059 47.9948 93.9466 48.5352 94.6562C49.082 95.3659 49.8112 95.7207 50.7227 95.7207C51.6406 95.7207 52.3698 95.3626 52.9102 94.6465C53.4505 93.9238 53.7207 92.9147 53.7207 91.6191C53.7207 90.4603 53.444 89.5228 52.8906 88.8066C52.3438 88.084 51.6146 87.7227 50.7031 87.7227C49.8112 87.7227 49.0918 88.0775 48.5449 88.7871C47.998 89.4967 47.7246 90.5124 47.7246 91.834ZM51.5234 82H53.7109L51.0938 84.8711H49.6387L51.5234 82ZM62.9004 88.0547C62.627 88.0091 62.3307 87.9863 62.0117 87.9863C60.8268 87.9863 60.0228 88.4909 59.5996 89.5V97H57.793V86.4336H59.5508L59.5801 87.6543C60.1725 86.7103 61.0124 86.2383 62.0996 86.2383C62.4512 86.2383 62.7181 86.2839 62.9004 86.375V88.0547ZM66.5332 97H64.7266V86.4336H66.5332V97ZM64.5801 83.6309C64.5801 83.3379 64.668 83.0905 64.8438 82.8887C65.026 82.6868 65.293 82.5859 65.6445 82.5859C65.9961 82.5859 66.263 82.6868 66.4453 82.8887C66.6276 83.0905 66.7188 83.3379 66.7188 83.6309C66.7188 83.9238 66.6276 84.168 66.4453 84.3633C66.263 84.5586 65.9961 84.6562 65.6445 84.6562C65.293 84.6562 65.026 84.5586 64.8438 84.3633C64.668 84.168 64.5801 83.9238 64.5801 83.6309ZM68.9551 91.6191C68.9551 90.584 69.1569 89.653 69.5605 88.8262C69.9707 87.9993 70.5371 87.3613 71.2598 86.9121C71.9889 86.4629 72.819 86.2383 73.75 86.2383C75.1888 86.2383 76.3509 86.7363 77.2363 87.7324C78.1283 88.7285 78.5742 90.0534 78.5742 91.707V91.834C78.5742 92.8626 78.3757 93.7871 77.9785 94.6074C77.5879 95.4212 77.0247 96.056 76.2891 96.5117C75.5599 96.9674 74.7201 97.1953 73.7695 97.1953C72.3372 97.1953 71.1751 96.6973 70.2832 95.7012C69.3978 94.7051 68.9551 93.3867 68.9551 91.7461V91.6191ZM70.7715 91.834C70.7715 93.0059 71.0417 93.9466 71.582 94.6562C72.1289 95.3659 72.8581 95.7207 73.7695 95.7207C74.6875 95.7207 75.4167 95.3626 75.957 94.6465C76.4974 93.9238 76.7676 92.9147 76.7676 91.6191C76.7676 90.4603 76.4909 89.5228 75.9375 88.8066C75.3906 88.084 74.6615 87.7227 73.75 87.7227C72.8581 87.7227 72.1387 88.0775 71.5918 88.7871C71.0449 89.4967 70.7715 90.5124 70.7715 91.834ZM86.9922 94.1973C86.9922 93.709 86.8066 93.3314 86.4355 93.0645C86.071 92.791 85.4297 92.5566 84.5117 92.3613C83.6003 92.166 82.8743 91.9316 82.334 91.6582C81.8001 91.3848 81.403 91.0592 81.1426 90.6816C80.8887 90.304 80.7617 89.8548 80.7617 89.334C80.7617 88.4681 81.1263 87.7357 81.8555 87.1367C82.5911 86.5378 83.5286 86.2383 84.668 86.2383C85.8659 86.2383 86.8359 86.5475 87.5781 87.166C88.3268 87.7845 88.7012 88.5755 88.7012 89.5391H86.8848C86.8848 89.0443 86.6732 88.6178 86.25 88.2598C85.8333 87.9017 85.306 87.7227 84.668 87.7227C84.0104 87.7227 83.4961 87.8659 83.125 88.1523C82.7539 88.4388 82.5684 88.8132 82.5684 89.2754C82.5684 89.7116 82.7409 90.0404 83.0859 90.2617C83.431 90.4831 84.0527 90.6947 84.9512 90.8965C85.8561 91.0983 86.5885 91.3392 87.1484 91.6191C87.7083 91.8991 88.1217 92.2376 88.3887 92.6348C88.6621 93.0254 88.7988 93.5039 88.7988 94.0703C88.7988 95.0143 88.4212 95.7728 87.666 96.3457C86.9108 96.9121 85.931 97.1953 84.7266 97.1953C83.8802 97.1953 83.1315 97.0456 82.4805 96.7461C81.8294 96.4466 81.3184 96.0299 80.9473 95.4961C80.5827 94.9557 80.4004 94.373 80.4004 93.748H82.207C82.2396 94.3535 82.4805 94.8353 82.9297 95.1934C83.3854 95.5449 83.9844 95.7207 84.7266 95.7207C85.4102 95.7207 85.957 95.584 86.3672 95.3105C86.7839 95.0306 86.9922 94.6595 86.9922 94.1973Z" fill="#F29F05"/>
<defs>
<clipPath id="clip0_261_105">
<rect width="72" height="72" fill="white" transform="translate(10)"/>
</clipPath>
</defs>
</svg>
