<svg width="115" height="129" viewBox="0 0 115 129" fill="none" xmlns="http://www.w3.org/2000/svg">
<path d="M34.9769 3.65591C30.7019 4.3731 27.1441 7.1856 25.4144 11.2215C24.9644 12.2903 24.9503 12.5012 25.33 12.9934C25.7097 13.4715 26.4128 13.4997 26.8206 13.0356C26.9753 12.8668 27.3269 12.2481 27.5941 11.6715C28.6066 9.50591 30.28 7.80435 32.4035 6.76373C34.0488 5.96216 35.0753 5.7231 37.0581 5.70904C39.0269 5.69497 40.0956 5.96216 41.98 6.93247C43.3581 7.64966 45.2285 9.44966 46.03 10.8278C46.5925 11.7981 47.155 13.4153 47.3238 14.4981C47.4222 15.1168 47.4081 15.159 46.8035 15.6934C43.9769 18.2528 42.641 20.4887 42.0785 23.6809C41.9238 24.5106 41.7128 25.284 41.6144 25.3825C41.3191 25.6778 39.3925 26.2825 38.2394 26.4372C34.9769 26.9012 31.0816 25.3403 28.9581 22.7247C27.7066 21.1778 26.9753 19.4903 26.7081 17.6059C26.5113 16.1856 26.3566 15.8059 25.8785 15.609C25.3722 15.3981 24.9503 15.5247 24.655 15.9747C24.191 16.6918 24.655 19.2934 25.6113 21.3465C26.1597 22.5278 27.1441 24.0325 27.6925 24.5247C27.8472 24.6793 27.9878 24.834 27.9878 24.8903C27.9878 24.9465 27.566 25.1012 27.0456 25.2278C23.4316 26.1418 20.2394 29.0106 18.805 32.6387C18.0316 34.5934 17.9894 35.184 18.0316 45.9278L18.0738 55.7575L18.4253 56.4325C18.8894 57.3606 19.5925 58.0497 20.5206 58.4856L21.3081 58.8512L28.3816 58.8934L35.441 58.9356V61.7059C35.441 63.4918 35.5113 64.7575 35.6238 65.2637C35.9613 66.67 36.9738 67.7668 38.38 68.2731C38.9144 68.4559 40.841 68.484 54.0035 68.484C70.4144 68.484 69.5566 68.5262 70.7941 67.6684C71.5113 67.1762 72.2003 66.0793 72.4113 65.1372C72.4956 64.7293 72.566 63.1684 72.566 61.6637V58.9356L79.6394 58.8934L86.6988 58.8512L87.4863 58.4856C88.4144 58.0497 89.1175 57.3606 89.5816 56.4325L89.9332 55.7575V45.4215C89.9332 35.2122 89.9332 35.0715 89.6238 33.9606C89.005 31.7247 88.1472 30.2059 86.5722 28.5606C85.0816 27.0137 83.0988 25.7903 81.3128 25.3122L80.7081 25.1575L81.2706 24.5106C82.5503 23.0762 83.591 21.1075 84.1113 19.195C84.5331 17.6481 84.5753 14.7512 84.1816 13.2184C83.591 10.9122 82.3113 8.60591 80.8628 7.25591C80.0894 6.52466 79.4144 6.3981 78.9785 6.87622C78.5144 7.38247 78.641 7.91685 79.4706 8.84497C80.4691 9.98404 81.3832 11.4887 81.791 12.6981C83.6753 18.2247 80.68 24.1731 75.1113 26.0012C73.03 26.6762 70.6535 26.6622 68.6144 25.959C67.3488 25.5231 67.1097 25.2981 67.0113 24.4825C66.5613 21.009 65.0425 18.1825 62.455 16.0168L61.5691 15.2575L61.6535 14.47C61.8081 12.8668 62.7503 10.8137 63.9456 9.40747C66.716 6.14497 70.78 4.9356 74.9847 6.10279C76.3488 6.48248 76.6722 6.41216 77.066 5.7231C77.2488 5.3856 77.2488 5.30122 77.066 4.94966C76.7706 4.42935 76.0535 4.10591 74.4363 3.76841C73.3113 3.54341 72.7347 3.50122 71.3706 3.55747C68.066 3.71216 65.38 4.89341 63.0597 7.22779C61.3722 8.90122 60.3035 10.7997 59.7128 13.12C59.6003 13.584 59.4738 13.9778 59.4456 14.02C59.4035 14.0481 58.8691 13.9215 58.2644 13.7247C55.691 12.9231 52.6816 12.9793 50.2347 13.8793C49.8831 14.0059 49.5878 14.0481 49.5175 13.9778C49.4472 13.9075 49.3206 13.5418 49.2363 13.1481C48.041 8.25434 44.0894 4.56997 39.041 3.66998C38.0847 3.50122 35.9753 3.48716 34.9769 3.65591ZM56.9988 15.6231C58.2925 15.9465 60.1488 16.8747 61.1331 17.6762C62.5675 18.8434 63.9456 20.9247 64.48 22.7387C64.5925 23.1325 64.7472 24.0043 64.8175 24.6793C65.3097 29.6012 62.3425 34.0872 57.5472 35.6903C56.605 35.9997 56.2113 36.0559 54.566 36.0559C52.4144 36.07 51.3456 35.8309 49.63 34.9309C44.3706 32.1747 42.4863 25.6215 45.4675 20.4606C46.8597 18.0559 49.7003 16.0028 52.3722 15.4684C53.5394 15.2434 55.8035 15.3137 56.9988 15.6231ZM31.5878 27.4075C32.0378 27.6325 32.7269 27.9137 33.0925 28.0403C33.9925 28.3356 36.0175 28.6872 36.8613 28.6872C37.7613 28.6872 39.5753 28.434 40.4191 28.1809C41.7691 27.8012 42.0363 27.9418 42.4019 29.2215C42.7394 30.3887 43.4566 31.8793 44.216 32.9762C44.5675 33.4965 44.8628 34.0309 44.8628 34.1715C44.8628 34.5231 44.455 34.8325 43.5831 35.1418C42.4441 35.5215 41.3753 36.0981 41.2066 36.4075C40.9816 36.8293 41.0378 37.4762 41.3191 37.7293C41.7269 38.109 42.1769 38.0528 43.4566 37.5184C44.7925 36.9418 45.4675 36.759 46.916 36.6184C47.83 36.534 47.9988 36.5622 48.7441 36.9137C50.8113 37.87 52.4425 38.2497 54.4956 38.2497C56.5347 38.2497 58.18 37.87 60.205 36.9278C60.9785 36.5622 61.0066 36.5622 62.1035 36.759C66.1113 37.4622 69.2753 40.4997 70.2035 44.5356C70.3441 45.1684 70.3863 47.5309 70.3863 55.1528C70.3863 64.8278 70.3863 64.9543 70.091 65.334C69.9363 65.545 69.6269 65.8543 69.416 66.009C69.0363 66.3043 68.966 66.3043 54.0035 66.3043C39.041 66.3043 38.9706 66.3043 38.591 66.009C38.38 65.8543 38.0706 65.545 37.916 65.334C37.6206 64.9543 37.6206 64.8278 37.6206 55.0825C37.6206 46.0403 37.6347 45.1403 37.8738 44.2965C38.2113 43.0872 38.7316 41.9059 39.3925 40.8793C39.7019 40.4153 39.941 39.9512 39.941 39.8528C39.941 39.1356 39.1253 38.559 38.4644 38.8122C37.7613 39.0793 36.3831 41.5543 35.8206 43.5793C35.5535 44.5778 35.5253 45.084 35.4691 50.6528L35.4128 56.6715H28.5363C20.9566 56.6715 21.1535 56.6997 20.5066 55.7997L20.1831 55.3356L20.141 45.9278C20.1128 38.0528 20.141 36.3231 20.3238 35.2965C21.055 31.0497 24.0785 28.0122 28.48 27.084C28.6347 27.0559 29.2113 27.0278 29.7597 27.0137C30.5894 26.9997 30.8847 27.07 31.5878 27.4075ZM80.8628 27.4356C84.6175 28.659 87.2472 31.809 87.7675 35.7043C87.8519 36.3512 87.8941 40.4012 87.866 46.0543L87.8238 55.3356L87.5003 55.7997C86.8535 56.6997 87.0503 56.6715 79.4706 56.6715H72.5941L72.5238 50.6528C72.4675 44.9715 72.4535 44.5918 72.1581 43.5372C71.0191 39.459 67.9535 36.2106 64.1988 35.0715C63.7347 34.9309 63.3269 34.8043 63.2988 34.7903C63.2706 34.7622 63.566 34.3825 63.9597 33.9325C65.2956 32.3856 66.2941 30.459 66.6878 28.659C66.7722 28.2512 66.8988 27.8575 66.955 27.7872C67.0113 27.7168 67.3066 27.759 67.63 27.8856C68.8816 28.3918 70.2175 28.6028 72.0035 28.6028C74.0566 28.5887 75.4628 28.2934 77.0941 27.5059C78.0222 27.0559 78.205 27.0137 79.0347 27.07C79.555 27.1122 80.3707 27.2668 80.8628 27.4356Z" fill="#F29F05"/>
<path d="M22.0996 81.7812V91.4492C22.0931 92.7904 21.6699 93.8874 20.8301 94.7402C19.9967 95.5931 18.8639 96.0716 17.4316 96.1758L16.9336 96.1953C15.3776 96.1953 14.1374 95.7754 13.2129 94.9355C12.2884 94.0957 11.8197 92.9401 11.8066 91.4688V81.7812H13.6621V91.4102C13.6621 92.4388 13.9453 93.2396 14.5117 93.8125C15.0781 94.3789 15.8854 94.6621 16.9336 94.6621C17.9948 94.6621 18.8053 94.3789 19.3652 93.8125C19.9316 93.2461 20.2148 92.4486 20.2148 91.4199V81.7812H22.0996ZM30.9277 93.1973C30.9277 92.709 30.7422 92.3314 30.3711 92.0645C30.0065 91.791 29.3652 91.5566 28.4473 91.3613C27.5358 91.166 26.8099 90.9316 26.2695 90.6582C25.7357 90.3848 25.3385 90.0592 25.0781 89.6816C24.8242 89.304 24.6973 88.8548 24.6973 88.334C24.6973 87.4681 25.0618 86.7357 25.791 86.1367C26.5267 85.5378 27.4642 85.2383 28.6035 85.2383C29.8014 85.2383 30.7715 85.5475 31.5137 86.166C32.2624 86.7845 32.6367 87.5755 32.6367 88.5391H30.8203C30.8203 88.0443 30.6087 87.6178 30.1855 87.2598C29.7689 86.9017 29.2415 86.7227 28.6035 86.7227C27.946 86.7227 27.4316 86.8659 27.0605 87.1523C26.6895 87.4388 26.5039 87.8132 26.5039 88.2754C26.5039 88.7116 26.6764 89.0404 27.0215 89.2617C27.3665 89.4831 27.9883 89.6947 28.8867 89.8965C29.7917 90.0983 30.5241 90.3392 31.084 90.6191C31.6439 90.8991 32.0573 91.2376 32.3242 91.6348C32.5977 92.0254 32.7344 92.5039 32.7344 93.0703C32.7344 94.0143 32.3568 94.7728 31.6016 95.3457C30.8464 95.9121 29.8665 96.1953 28.6621 96.1953C27.8158 96.1953 27.0671 96.0456 26.416 95.7461C25.765 95.4466 25.2539 95.0299 24.8828 94.4961C24.5182 93.9557 24.3359 93.373 24.3359 92.748H26.1426C26.1751 93.3535 26.416 93.8353 26.8652 94.1934C27.321 94.5449 27.9199 94.7207 28.6621 94.7207C29.3457 94.7207 29.8926 94.584 30.3027 94.3105C30.7194 94.0306 30.9277 93.6595 30.9277 93.1973ZM41.6113 94.9551C40.9082 95.7819 39.8763 96.1953 38.5156 96.1953C37.3893 96.1953 36.5299 95.8698 35.9375 95.2188C35.3516 94.5612 35.0553 93.5911 35.0488 92.3086V85.4336H36.8555V92.2598C36.8555 93.8613 37.5065 94.6621 38.8086 94.6621C40.1888 94.6621 41.1068 94.1478 41.5625 93.1191V85.4336H43.3691V96H41.6504L41.6113 94.9551ZM52.6465 96C52.5423 95.7917 52.4577 95.4206 52.3926 94.8867C51.5527 95.7591 50.5501 96.1953 49.3848 96.1953C48.3431 96.1953 47.487 95.9023 46.8164 95.3164C46.1523 94.724 45.8203 93.9753 45.8203 93.0703C45.8203 91.9701 46.237 91.1172 47.0703 90.5117C47.9102 89.8997 49.0885 89.5938 50.6055 89.5938H52.3633V88.7637C52.3633 88.1322 52.1745 87.6309 51.7969 87.2598C51.4193 86.8822 50.8626 86.6934 50.127 86.6934C49.4824 86.6934 48.9421 86.8561 48.5059 87.1816C48.0697 87.5072 47.8516 87.901 47.8516 88.3633H46.0352C46.0352 87.8359 46.2207 87.3281 46.5918 86.8398C46.9694 86.3451 47.4772 85.9544 48.1152 85.668C48.7598 85.3815 49.4661 85.2383 50.2344 85.2383C51.4518 85.2383 52.4056 85.5443 53.0957 86.1562C53.7858 86.7617 54.1439 87.5983 54.1699 88.666V93.5293C54.1699 94.4993 54.2936 95.2708 54.541 95.8438V96H52.6465ZM49.6484 94.623C50.2148 94.623 50.752 94.4766 51.2598 94.1836C51.7676 93.8906 52.1354 93.5098 52.3633 93.041V90.873H50.9473C48.7337 90.873 47.627 91.5208 47.627 92.8164C47.627 93.3828 47.8158 93.8255 48.1934 94.1445C48.571 94.4635 49.056 94.623 49.6484 94.623ZM51.3184 81H53.5059L50.8887 83.8711H49.4336L51.3184 81ZM62.1094 87.0547C61.8359 87.0091 61.5397 86.9863 61.2207 86.9863C60.0358 86.9863 59.2318 87.4909 58.8086 88.5V96H57.002V85.4336H58.7598L58.7891 86.6543C59.3815 85.7103 60.2214 85.2383 61.3086 85.2383C61.6602 85.2383 61.9271 85.2839 62.1094 85.375V87.0547ZM65.7422 96H63.9355V85.4336H65.7422V96ZM63.7891 82.6309C63.7891 82.3379 63.877 82.0905 64.0527 81.8887C64.235 81.6868 64.502 81.5859 64.8535 81.5859C65.2051 81.5859 65.472 81.6868 65.6543 81.8887C65.8366 82.0905 65.9277 82.3379 65.9277 82.6309C65.9277 82.9238 65.8366 83.168 65.6543 83.3633C65.472 83.5586 65.2051 83.6562 64.8535 83.6562C64.502 83.6562 64.235 83.5586 64.0527 83.3633C63.877 83.168 63.7891 82.9238 63.7891 82.6309ZM68.1641 90.6191C68.1641 89.584 68.3659 88.653 68.7695 87.8262C69.1797 86.9993 69.7461 86.3613 70.4688 85.9121C71.1979 85.4629 72.028 85.2383 72.959 85.2383C74.3978 85.2383 75.5599 85.7363 76.4453 86.7324C77.3372 87.7285 77.7832 89.0534 77.7832 90.707V90.834C77.7832 91.8626 77.5846 92.7871 77.1875 93.6074C76.7969 94.4212 76.2337 95.056 75.498 95.5117C74.7689 95.9674 73.929 96.1953 72.9785 96.1953C71.5462 96.1953 70.3841 95.6973 69.4922 94.7012C68.6068 93.7051 68.1641 92.3867 68.1641 90.7461V90.6191ZM69.9805 90.834C69.9805 92.0059 70.2507 92.9466 70.791 93.6562C71.3379 94.3659 72.0671 94.7207 72.9785 94.7207C73.8965 94.7207 74.6257 94.3626 75.166 93.6465C75.7064 92.9238 75.9766 91.9147 75.9766 90.6191C75.9766 89.4603 75.6999 88.5228 75.1465 87.8066C74.5996 87.084 73.8704 86.7227 72.959 86.7227C72.0671 86.7227 71.3477 87.0775 70.8008 87.7871C70.2539 88.4967 69.9805 89.5124 69.9805 90.834ZM86.2012 93.1973C86.2012 92.709 86.0156 92.3314 85.6445 92.0645C85.2799 91.791 84.6387 91.5566 83.7207 91.3613C82.8092 91.166 82.0833 90.9316 81.543 90.6582C81.0091 90.3848 80.612 90.0592 80.3516 89.6816C80.0977 89.304 79.9707 88.8548 79.9707 88.334C79.9707 87.4681 80.3353 86.7357 81.0645 86.1367C81.8001 85.5378 82.7376 85.2383 83.877 85.2383C85.0749 85.2383 86.0449 85.5475 86.7871 86.166C87.5358 86.7845 87.9102 87.5755 87.9102 88.5391H86.0938C86.0938 88.0443 85.8822 87.6178 85.459 87.2598C85.0423 86.9017 84.515 86.7227 83.877 86.7227C83.2194 86.7227 82.7051 86.8659 82.334 87.1523C81.9629 87.4388 81.7773 87.8132 81.7773 88.2754C81.7773 88.7116 81.9499 89.0404 82.2949 89.2617C82.64 89.4831 83.2617 89.6947 84.1602 89.8965C85.0651 90.0983 85.7975 90.3392 86.3574 90.6191C86.9173 90.8991 87.3307 91.2376 87.5977 91.6348C87.8711 92.0254 88.0078 92.5039 88.0078 93.0703C88.0078 94.0143 87.6302 94.7728 86.875 95.3457C86.1198 95.9121 85.14 96.1953 83.9355 96.1953C83.0892 96.1953 82.3405 96.0456 81.6895 95.7461C81.0384 95.4466 80.5273 95.0299 80.1562 94.4961C79.7917 93.9557 79.6094 93.373 79.6094 92.748H81.416C81.4486 93.3535 81.6895 93.8353 82.1387 94.1934C82.5944 94.5449 83.1934 94.7207 83.9355 94.7207C84.6191 94.7207 85.166 94.584 85.5762 94.3105C85.9928 94.0306 86.2012 93.6595 86.2012 93.1973ZM99.707 96.1953C98.2747 96.1953 97.1094 95.7266 96.2109 94.7891C95.3125 93.8451 94.8633 92.5853 94.8633 91.0098V90.6777C94.8633 89.6296 95.0618 88.6953 95.459 87.875C95.8626 87.0482 96.4225 86.4036 97.1387 85.9414C97.8613 85.4727 98.6426 85.2383 99.4824 85.2383C100.856 85.2383 101.924 85.6908 102.686 86.5957C103.447 87.5007 103.828 88.7962 103.828 90.4824V91.2344H96.6699C96.696 92.276 96.9987 93.1191 97.5781 93.7637C98.1641 94.4017 98.9062 94.7207 99.8047 94.7207C100.443 94.7207 100.983 94.5905 101.426 94.3301C101.868 94.0697 102.256 93.7246 102.588 93.2949L103.691 94.1543C102.806 95.515 101.478 96.1953 99.707 96.1953ZM99.4824 86.7227C98.7533 86.7227 98.1413 86.9896 97.6465 87.5234C97.1517 88.0508 96.8457 88.793 96.7285 89.75H102.021V89.6133C101.969 88.6953 101.722 87.9857 101.279 87.4844C100.837 86.9766 100.238 86.7227 99.4824 86.7227ZM8.41797 113.434V119H6.54297V104.781H11.7871C13.3431 104.781 14.5605 105.178 15.4395 105.973C16.3249 106.767 16.7676 107.818 16.7676 109.127C16.7676 110.507 16.3346 111.572 15.4688 112.32C14.6094 113.062 13.3757 113.434 11.7676 113.434H8.41797ZM8.41797 111.9H11.7871C12.7897 111.9 13.5579 111.666 14.0918 111.197C14.6257 110.722 14.8926 110.038 14.8926 109.146C14.8926 108.3 14.6257 107.623 14.0918 107.115C13.5579 106.607 12.8255 106.344 11.8945 106.324H8.41797V111.9ZM23.125 119.195C21.6927 119.195 20.5273 118.727 19.6289 117.789C18.7305 116.845 18.2812 115.585 18.2812 114.01V113.678C18.2812 112.63 18.4798 111.695 18.877 110.875C19.2806 110.048 19.8405 109.404 20.5566 108.941C21.2793 108.473 22.0605 108.238 22.9004 108.238C24.2741 108.238 25.3418 108.691 26.1035 109.596C26.8652 110.501 27.2461 111.796 27.2461 113.482V114.234H20.0879C20.1139 115.276 20.4167 116.119 20.9961 116.764C21.582 117.402 22.3242 117.721 23.2227 117.721C23.8607 117.721 24.401 117.59 24.8438 117.33C25.2865 117.07 25.6738 116.725 26.0059 116.295L27.1094 117.154C26.224 118.515 24.8958 119.195 23.125 119.195ZM22.9004 109.723C22.1712 109.723 21.5592 109.99 21.0645 110.523C20.5697 111.051 20.2637 111.793 20.1465 112.75H25.4395V112.613C25.3874 111.695 25.14 110.986 24.6973 110.484C24.2546 109.977 23.6556 109.723 22.9004 109.723ZM34.4531 110.055C34.1797 110.009 33.8835 109.986 33.5645 109.986C32.3796 109.986 31.5755 110.491 31.1523 111.5V119H29.3457V108.434H31.1035L31.1328 109.654C31.7253 108.71 32.5651 108.238 33.6523 108.238C34.0039 108.238 34.2708 108.284 34.4531 108.375V110.055ZM37.8223 108.434L37.8711 109.605C38.6458 108.694 39.6908 108.238 41.0059 108.238C42.4837 108.238 43.4896 108.805 44.0234 109.938C44.375 109.43 44.8307 109.02 45.3906 108.707C45.957 108.395 46.6243 108.238 47.3926 108.238C49.7103 108.238 50.8887 109.465 50.9277 111.92V119H49.1211V112.027C49.1211 111.272 48.9486 110.709 48.6035 110.338C48.2585 109.96 47.679 109.771 46.8652 109.771C46.1947 109.771 45.638 109.973 45.1953 110.377C44.7526 110.774 44.4954 111.311 44.4238 111.988V119H42.6074V112.076C42.6074 110.54 41.8555 109.771 40.3516 109.771C39.1667 109.771 38.3561 110.276 37.9199 111.285V119H36.1133V108.434H37.8223ZM55.625 119H53.8184V108.434H55.625V119ZM53.6719 105.631C53.6719 105.338 53.7598 105.09 53.9355 104.889C54.1178 104.687 54.3848 104.586 54.7363 104.586C55.0879 104.586 55.3548 104.687 55.5371 104.889C55.7194 105.09 55.8105 105.338 55.8105 105.631C55.8105 105.924 55.7194 106.168 55.5371 106.363C55.3548 106.559 55.0879 106.656 54.7363 106.656C54.3848 106.656 54.1178 106.559 53.9355 106.363C53.7598 106.168 53.6719 105.924 53.6719 105.631ZM64.6777 116.197C64.6777 115.709 64.4922 115.331 64.1211 115.064C63.7565 114.791 63.1152 114.557 62.1973 114.361C61.2858 114.166 60.5599 113.932 60.0195 113.658C59.4857 113.385 59.0885 113.059 58.8281 112.682C58.5742 112.304 58.4473 111.855 58.4473 111.334C58.4473 110.468 58.8118 109.736 59.541 109.137C60.2767 108.538 61.2142 108.238 62.3535 108.238C63.5514 108.238 64.5215 108.548 65.2637 109.166C66.0124 109.785 66.3867 110.576 66.3867 111.539H64.5703C64.5703 111.044 64.3587 110.618 63.9355 110.26C63.5189 109.902 62.9915 109.723 62.3535 109.723C61.696 109.723 61.1816 109.866 60.8105 110.152C60.4395 110.439 60.2539 110.813 60.2539 111.275C60.2539 111.712 60.4264 112.04 60.7715 112.262C61.1165 112.483 61.7383 112.695 62.6367 112.896C63.5417 113.098 64.2741 113.339 64.834 113.619C65.3939 113.899 65.8073 114.238 66.0742 114.635C66.3477 115.025 66.4844 115.504 66.4844 116.07C66.4844 117.014 66.1068 117.773 65.3516 118.346C64.5964 118.912 63.6165 119.195 62.4121 119.195C61.5658 119.195 60.8171 119.046 60.166 118.746C59.515 118.447 59.0039 118.03 58.6328 117.496C58.2682 116.956 58.0859 116.373 58.0859 115.748H59.8926C59.9251 116.354 60.166 116.835 60.6152 117.193C61.071 117.545 61.6699 117.721 62.4121 117.721C63.0957 117.721 63.6426 117.584 64.0527 117.311C64.4694 117.031 64.6777 116.66 64.6777 116.197ZM74.9902 116.197C74.9902 115.709 74.8047 115.331 74.4336 115.064C74.069 114.791 73.4277 114.557 72.5098 114.361C71.5983 114.166 70.8724 113.932 70.332 113.658C69.7982 113.385 69.401 113.059 69.1406 112.682C68.8867 112.304 68.7598 111.855 68.7598 111.334C68.7598 110.468 69.1243 109.736 69.8535 109.137C70.5892 108.538 71.5267 108.238 72.666 108.238C73.8639 108.238 74.834 108.548 75.5762 109.166C76.3249 109.785 76.6992 110.576 76.6992 111.539H74.8828C74.8828 111.044 74.6712 110.618 74.248 110.26C73.8314 109.902 73.304 109.723 72.666 109.723C72.0085 109.723 71.4941 109.866 71.123 110.152C70.752 110.439 70.5664 110.813 70.5664 111.275C70.5664 111.712 70.7389 112.04 71.084 112.262C71.429 112.483 72.0508 112.695 72.9492 112.896C73.8542 113.098 74.5866 113.339 75.1465 113.619C75.7064 113.899 76.1198 114.238 76.3867 114.635C76.6602 115.025 76.7969 115.504 76.7969 116.07C76.7969 117.014 76.4193 117.773 75.6641 118.346C74.9089 118.912 73.929 119.195 72.7246 119.195C71.8783 119.195 71.1296 119.046 70.4785 118.746C69.8275 118.447 69.3164 118.03 68.9453 117.496C68.5807 116.956 68.3984 116.373 68.3984 115.748H70.2051C70.2376 116.354 70.4785 116.835 70.9277 117.193C71.3835 117.545 71.9824 117.721 72.7246 117.721C73.4082 117.721 73.9551 117.584 74.3652 117.311C74.7819 117.031 74.9902 116.66 74.9902 116.197ZM78.6719 113.619C78.6719 112.584 78.8737 111.653 79.2773 110.826C79.6875 109.999 80.2539 109.361 80.9766 108.912C81.7057 108.463 82.5358 108.238 83.4668 108.238C84.9056 108.238 86.0677 108.736 86.9531 109.732C87.8451 110.729 88.291 112.053 88.291 113.707V113.834C88.291 114.863 88.0924 115.787 87.6953 116.607C87.3047 117.421 86.7415 118.056 86.0059 118.512C85.2767 118.967 84.4368 119.195 83.4863 119.195C82.054 119.195 80.8919 118.697 80 117.701C79.1146 116.705 78.6719 115.387 78.6719 113.746V113.619ZM80.4883 113.834C80.4883 115.006 80.7585 115.947 81.2988 116.656C81.8457 117.366 82.5749 117.721 83.4863 117.721C84.4043 117.721 85.1335 117.363 85.6738 116.646C86.2142 115.924 86.4844 114.915 86.4844 113.619C86.4844 112.46 86.2077 111.523 85.6543 110.807C85.1074 110.084 84.3783 109.723 83.4668 109.723C82.5749 109.723 81.8555 110.077 81.3086 110.787C80.7617 111.497 80.4883 112.512 80.4883 113.834ZM86.8652 104.312C86.8652 105.016 86.6634 105.585 86.2598 106.021C85.8626 106.458 85.3646 106.676 84.7656 106.676C84.4987 106.676 84.2676 106.643 84.0723 106.578C83.877 106.513 83.6198 106.38 83.3008 106.178C82.9883 105.976 82.7604 105.855 82.6172 105.816C82.4805 105.771 82.321 105.748 82.1387 105.748C81.8717 105.748 81.6439 105.852 81.4551 106.061C81.2663 106.262 81.1719 106.523 81.1719 106.842L79.9609 106.773C79.9609 106.077 80.1562 105.501 80.5469 105.045C80.944 104.589 81.4453 104.361 82.0508 104.361C82.2786 104.361 82.4837 104.394 82.666 104.459C82.8483 104.524 83.0957 104.651 83.4082 104.84C83.7207 105.029 83.9583 105.152 84.1211 105.211C84.2904 105.27 84.4759 105.299 84.6777 105.299C84.9577 105.299 85.1888 105.188 85.3711 104.967C85.5599 104.745 85.6543 104.488 85.6543 104.195L86.8652 104.312ZM94.9414 119.195C93.5091 119.195 92.3438 118.727 91.4453 117.789C90.5469 116.845 90.0977 115.585 90.0977 114.01V113.678C90.0977 112.63 90.2962 111.695 90.6934 110.875C91.097 110.048 91.6569 109.404 92.373 108.941C93.0957 108.473 93.877 108.238 94.7168 108.238C96.0905 108.238 97.1582 108.691 97.9199 109.596C98.6816 110.501 99.0625 111.796 99.0625 113.482V114.234H91.9043C91.9303 115.276 92.2331 116.119 92.8125 116.764C93.3984 117.402 94.1406 117.721 95.0391 117.721C95.6771 117.721 96.2174 117.59 96.6602 117.33C97.1029 117.07 97.4902 116.725 97.8223 116.295L98.9258 117.154C98.0404 118.515 96.7122 119.195 94.9414 119.195ZM94.7168 109.723C93.9876 109.723 93.3757 109.99 92.8809 110.523C92.3861 111.051 92.0801 111.793 91.9629 112.75H97.2559V112.613C97.2038 111.695 96.9564 110.986 96.5137 110.484C96.071 109.977 95.472 109.723 94.7168 109.723ZM107.314 116.197C107.314 115.709 107.129 115.331 106.758 115.064C106.393 114.791 105.752 114.557 104.834 114.361C103.923 114.166 103.197 113.932 102.656 113.658C102.122 113.385 101.725 113.059 101.465 112.682C101.211 112.304 101.084 111.855 101.084 111.334C101.084 110.468 101.449 109.736 102.178 109.137C102.913 108.538 103.851 108.238 104.99 108.238C106.188 108.238 107.158 108.548 107.9 109.166C108.649 109.785 109.023 110.576 109.023 111.539H107.207C107.207 111.044 106.995 110.618 106.572 110.26C106.156 109.902 105.628 109.723 104.99 109.723C104.333 109.723 103.818 109.866 103.447 110.152C103.076 110.439 102.891 110.813 102.891 111.275C102.891 111.712 103.063 112.04 103.408 112.262C103.753 112.483 104.375 112.695 105.273 112.896C106.178 113.098 106.911 113.339 107.471 113.619C108.031 113.899 108.444 114.238 108.711 114.635C108.984 115.025 109.121 115.504 109.121 116.07C109.121 117.014 108.743 117.773 107.988 118.346C107.233 118.912 106.253 119.195 105.049 119.195C104.202 119.195 103.454 119.046 102.803 118.746C102.152 118.447 101.641 118.03 101.27 117.496C100.905 116.956 100.723 116.373 100.723 115.748H102.529C102.562 116.354 102.803 116.835 103.252 117.193C103.708 117.545 104.307 117.721 105.049 117.721C105.732 117.721 106.279 117.584 106.689 117.311C107.106 117.031 107.314 116.66 107.314 116.197Z" fill="#F29F05"/>
</svg>
