<svg width="25" height="25" viewBox="0 0 25 25" fill="none" xmlns="http://www.w3.org/2000/svg">
<g opacity="0.972">
<path fill-rule="evenodd" clip-rule="evenodd" d="M11.4258 0C12.1419 0 12.8581 0 13.5742 0C18.47 0.612344 21.9612 3.15141 24.0479 7.61719C24.5506 8.84688 24.868 10.1164 25 11.4258C25 12.1419 25 12.8581 25 13.5742C24.3876 18.47 21.8486 21.9612 17.3828 24.0479C16.1531 24.5506 14.8836 24.868 13.5742 25C12.8581 25 12.1419 25 11.4258 25C6.52998 24.3876 3.03877 21.8486 0.952148 17.3828C0.449411 16.1531 0.132028 14.8836 0 13.5742C0 12.8581 0 12.1419 0 11.4258C0.612344 6.52998 3.15141 3.03877 7.61719 0.952148C8.84687 0.449411 10.1164 0.132028 11.4258 0ZM11.5234 1.75781C15.3743 1.5478 18.5237 2.91499 20.9717 5.85938C23.1433 8.7751 23.7618 11.9978 22.8271 15.5273C21.577 19.3328 19.0298 21.7986 15.1855 22.9248C11.0545 23.8261 7.5145 22.7763 4.56543 19.7754C1.97811 16.7688 1.18058 13.3346 2.17285 9.47266C3.36914 5.80239 5.80239 3.36914 9.47266 2.17285C10.1534 1.98626 10.837 1.84792 11.5234 1.75781Z" fill="#F29F05"/>
<path fill-rule="evenodd" clip-rule="evenodd" d="M11.1816 6.88477C11.8336 6.81309 12.208 7.09795 12.3047 7.73926C12.2971 7.94121 12.2401 8.12837 12.1338 8.30078C11.0352 9.39942 9.93652 10.498 8.83789 11.5967C12.0605 11.6129 15.2832 11.6292 18.5059 11.6455C19.1479 11.9441 19.3026 12.408 18.9697 13.0371C18.8341 13.1986 18.6632 13.3044 18.457 13.3545C15.2506 13.3708 12.0443 13.3871 8.83789 13.4033C9.93652 14.502 11.0352 15.6006 12.1338 16.6992C12.4934 17.4775 12.2574 17.9495 11.4258 18.1152C11.2516 18.1196 11.0889 18.0789 10.9375 17.9932C9.26919 16.3249 7.60093 14.6566 5.93262 12.9883C5.76987 12.6627 5.76987 12.3373 5.93262 12.0117C7.60093 10.3434 9.26919 8.67515 10.9375 7.00684C11.0261 6.96987 11.1075 6.9292 11.1816 6.88477Z" fill="#F29F05"/>
</g>
</svg>
